%TF.GenerationSoftware,KiCad,Pcbnew,(7.0.0)*%
%TF.CreationDate,2023-02-28T19:32:44+01:00*%
%TF.ProjectId,Solar Cell offgrid Power,536f6c61-7220-4436-956c-6c206f666667,rev?*%
%TF.SameCoordinates,Original*%
%TF.FileFunction,Drillmap*%
%TF.FilePolarity,Positive*%
%FSLAX45Y45*%
G04 Gerber Fmt 4.5, Leading zero omitted, Abs format (unit mm)*
G04 Created by KiCad (PCBNEW (7.0.0)) date 2023-02-28 19:32:44*
%MOMM*%
%LPD*%
G01*
G04 APERTURE LIST*
%ADD10C,0.100000*%
%ADD11C,0.200000*%
%ADD12C,0.110000*%
G04 APERTURE END LIST*
D10*
X10919000Y-6569000D02*
X23371000Y-6569000D01*
X23371000Y-6569000D02*
X23371000Y-13378000D01*
X23371000Y-13378000D02*
X10919000Y-13378000D01*
X10919000Y-13378000D02*
X10919000Y-6569000D01*
D11*
D12*
X10974000Y-7878000D02*
X11084000Y-7988000D01*
X11084000Y-7878000D02*
X10974000Y-7988000D01*
X10974000Y-8132000D02*
X11084000Y-8242000D01*
X11084000Y-8132000D02*
X10974000Y-8242000D01*
D11*
X11161619Y-13676476D02*
X11161619Y-13476476D01*
X11161619Y-13476476D02*
X11209238Y-13476476D01*
X11209238Y-13476476D02*
X11237809Y-13486000D01*
X11237809Y-13486000D02*
X11256857Y-13505048D01*
X11256857Y-13505048D02*
X11266381Y-13524095D01*
X11266381Y-13524095D02*
X11275905Y-13562190D01*
X11275905Y-13562190D02*
X11275905Y-13590762D01*
X11275905Y-13590762D02*
X11266381Y-13628857D01*
X11266381Y-13628857D02*
X11256857Y-13647905D01*
X11256857Y-13647905D02*
X11237809Y-13666952D01*
X11237809Y-13666952D02*
X11209238Y-13676476D01*
X11209238Y-13676476D02*
X11161619Y-13676476D01*
X11361619Y-13676476D02*
X11361619Y-13543143D01*
X11361619Y-13581238D02*
X11371143Y-13562190D01*
X11371143Y-13562190D02*
X11380667Y-13552667D01*
X11380667Y-13552667D02*
X11399714Y-13543143D01*
X11399714Y-13543143D02*
X11418762Y-13543143D01*
X11485428Y-13676476D02*
X11485428Y-13543143D01*
X11485428Y-13476476D02*
X11475905Y-13486000D01*
X11475905Y-13486000D02*
X11485428Y-13495524D01*
X11485428Y-13495524D02*
X11494952Y-13486000D01*
X11494952Y-13486000D02*
X11485428Y-13476476D01*
X11485428Y-13476476D02*
X11485428Y-13495524D01*
X11609238Y-13676476D02*
X11590190Y-13666952D01*
X11590190Y-13666952D02*
X11580667Y-13647905D01*
X11580667Y-13647905D02*
X11580667Y-13476476D01*
X11714000Y-13676476D02*
X11694952Y-13666952D01*
X11694952Y-13666952D02*
X11685428Y-13647905D01*
X11685428Y-13647905D02*
X11685428Y-13476476D01*
X11910190Y-13676476D02*
X11910190Y-13476476D01*
X11910190Y-13476476D02*
X11976857Y-13619333D01*
X11976857Y-13619333D02*
X12043524Y-13476476D01*
X12043524Y-13476476D02*
X12043524Y-13676476D01*
X12224476Y-13676476D02*
X12224476Y-13571714D01*
X12224476Y-13571714D02*
X12214952Y-13552667D01*
X12214952Y-13552667D02*
X12195905Y-13543143D01*
X12195905Y-13543143D02*
X12157809Y-13543143D01*
X12157809Y-13543143D02*
X12138762Y-13552667D01*
X12224476Y-13666952D02*
X12205428Y-13676476D01*
X12205428Y-13676476D02*
X12157809Y-13676476D01*
X12157809Y-13676476D02*
X12138762Y-13666952D01*
X12138762Y-13666952D02*
X12129238Y-13647905D01*
X12129238Y-13647905D02*
X12129238Y-13628857D01*
X12129238Y-13628857D02*
X12138762Y-13609809D01*
X12138762Y-13609809D02*
X12157809Y-13600286D01*
X12157809Y-13600286D02*
X12205428Y-13600286D01*
X12205428Y-13600286D02*
X12224476Y-13590762D01*
X12319714Y-13543143D02*
X12319714Y-13743143D01*
X12319714Y-13552667D02*
X12338762Y-13543143D01*
X12338762Y-13543143D02*
X12376857Y-13543143D01*
X12376857Y-13543143D02*
X12395905Y-13552667D01*
X12395905Y-13552667D02*
X12405428Y-13562190D01*
X12405428Y-13562190D02*
X12414952Y-13581238D01*
X12414952Y-13581238D02*
X12414952Y-13638381D01*
X12414952Y-13638381D02*
X12405428Y-13657428D01*
X12405428Y-13657428D02*
X12395905Y-13666952D01*
X12395905Y-13666952D02*
X12376857Y-13676476D01*
X12376857Y-13676476D02*
X12338762Y-13676476D01*
X12338762Y-13676476D02*
X12319714Y-13666952D01*
X12500667Y-13657428D02*
X12510190Y-13666952D01*
X12510190Y-13666952D02*
X12500667Y-13676476D01*
X12500667Y-13676476D02*
X12491143Y-13666952D01*
X12491143Y-13666952D02*
X12500667Y-13657428D01*
X12500667Y-13657428D02*
X12500667Y-13676476D01*
X12500667Y-13552667D02*
X12510190Y-13562190D01*
X12510190Y-13562190D02*
X12500667Y-13571714D01*
X12500667Y-13571714D02*
X12491143Y-13562190D01*
X12491143Y-13562190D02*
X12500667Y-13552667D01*
X12500667Y-13552667D02*
X12500667Y-13571714D01*
D12*
X10804000Y-13968000D02*
X10914000Y-14078000D01*
X10914000Y-13968000D02*
X10804000Y-14078000D01*
D11*
X11266381Y-14096476D02*
X11152095Y-14096476D01*
X11209238Y-14096476D02*
X11209238Y-13896476D01*
X11209238Y-13896476D02*
X11190190Y-13925048D01*
X11190190Y-13925048D02*
X11171143Y-13944095D01*
X11171143Y-13944095D02*
X11152095Y-13953619D01*
X11352095Y-14077428D02*
X11361619Y-14086952D01*
X11361619Y-14086952D02*
X11352095Y-14096476D01*
X11352095Y-14096476D02*
X11342571Y-14086952D01*
X11342571Y-14086952D02*
X11352095Y-14077428D01*
X11352095Y-14077428D02*
X11352095Y-14096476D01*
X11552095Y-14096476D02*
X11437809Y-14096476D01*
X11494952Y-14096476D02*
X11494952Y-13896476D01*
X11494952Y-13896476D02*
X11475905Y-13925048D01*
X11475905Y-13925048D02*
X11456857Y-13944095D01*
X11456857Y-13944095D02*
X11437809Y-13953619D01*
X11675905Y-13896476D02*
X11694952Y-13896476D01*
X11694952Y-13896476D02*
X11714000Y-13906000D01*
X11714000Y-13906000D02*
X11723524Y-13915524D01*
X11723524Y-13915524D02*
X11733048Y-13934571D01*
X11733048Y-13934571D02*
X11742571Y-13972667D01*
X11742571Y-13972667D02*
X11742571Y-14020286D01*
X11742571Y-14020286D02*
X11733048Y-14058381D01*
X11733048Y-14058381D02*
X11723524Y-14077428D01*
X11723524Y-14077428D02*
X11714000Y-14086952D01*
X11714000Y-14086952D02*
X11694952Y-14096476D01*
X11694952Y-14096476D02*
X11675905Y-14096476D01*
X11675905Y-14096476D02*
X11656857Y-14086952D01*
X11656857Y-14086952D02*
X11647333Y-14077428D01*
X11647333Y-14077428D02*
X11637809Y-14058381D01*
X11637809Y-14058381D02*
X11628286Y-14020286D01*
X11628286Y-14020286D02*
X11628286Y-13972667D01*
X11628286Y-13972667D02*
X11637809Y-13934571D01*
X11637809Y-13934571D02*
X11647333Y-13915524D01*
X11647333Y-13915524D02*
X11656857Y-13906000D01*
X11656857Y-13906000D02*
X11675905Y-13896476D01*
X11866381Y-13896476D02*
X11885429Y-13896476D01*
X11885429Y-13896476D02*
X11904476Y-13906000D01*
X11904476Y-13906000D02*
X11914000Y-13915524D01*
X11914000Y-13915524D02*
X11923524Y-13934571D01*
X11923524Y-13934571D02*
X11933048Y-13972667D01*
X11933048Y-13972667D02*
X11933048Y-14020286D01*
X11933048Y-14020286D02*
X11923524Y-14058381D01*
X11923524Y-14058381D02*
X11914000Y-14077428D01*
X11914000Y-14077428D02*
X11904476Y-14086952D01*
X11904476Y-14086952D02*
X11885429Y-14096476D01*
X11885429Y-14096476D02*
X11866381Y-14096476D01*
X11866381Y-14096476D02*
X11847333Y-14086952D01*
X11847333Y-14086952D02*
X11837809Y-14077428D01*
X11837809Y-14077428D02*
X11828286Y-14058381D01*
X11828286Y-14058381D02*
X11818762Y-14020286D01*
X11818762Y-14020286D02*
X11818762Y-13972667D01*
X11818762Y-13972667D02*
X11828286Y-13934571D01*
X11828286Y-13934571D02*
X11837809Y-13915524D01*
X11837809Y-13915524D02*
X11847333Y-13906000D01*
X11847333Y-13906000D02*
X11866381Y-13896476D01*
X12018762Y-14096476D02*
X12018762Y-13963143D01*
X12018762Y-13982190D02*
X12028286Y-13972667D01*
X12028286Y-13972667D02*
X12047333Y-13963143D01*
X12047333Y-13963143D02*
X12075905Y-13963143D01*
X12075905Y-13963143D02*
X12094952Y-13972667D01*
X12094952Y-13972667D02*
X12104476Y-13991714D01*
X12104476Y-13991714D02*
X12104476Y-14096476D01*
X12104476Y-13991714D02*
X12114000Y-13972667D01*
X12114000Y-13972667D02*
X12133048Y-13963143D01*
X12133048Y-13963143D02*
X12161619Y-13963143D01*
X12161619Y-13963143D02*
X12180667Y-13972667D01*
X12180667Y-13972667D02*
X12190190Y-13991714D01*
X12190190Y-13991714D02*
X12190190Y-14096476D01*
X12285429Y-14096476D02*
X12285429Y-13963143D01*
X12285429Y-13982190D02*
X12294952Y-13972667D01*
X12294952Y-13972667D02*
X12314000Y-13963143D01*
X12314000Y-13963143D02*
X12342571Y-13963143D01*
X12342571Y-13963143D02*
X12361619Y-13972667D01*
X12361619Y-13972667D02*
X12371143Y-13991714D01*
X12371143Y-13991714D02*
X12371143Y-14096476D01*
X12371143Y-13991714D02*
X12380667Y-13972667D01*
X12380667Y-13972667D02*
X12399714Y-13963143D01*
X12399714Y-13963143D02*
X12428286Y-13963143D01*
X12428286Y-13963143D02*
X12447333Y-13972667D01*
X12447333Y-13972667D02*
X12456857Y-13991714D01*
X12456857Y-13991714D02*
X12456857Y-14096476D01*
X12814952Y-13886952D02*
X12643524Y-14144095D01*
X13039714Y-13896476D02*
X13058762Y-13896476D01*
X13058762Y-13896476D02*
X13077810Y-13906000D01*
X13077810Y-13906000D02*
X13087333Y-13915524D01*
X13087333Y-13915524D02*
X13096857Y-13934571D01*
X13096857Y-13934571D02*
X13106381Y-13972667D01*
X13106381Y-13972667D02*
X13106381Y-14020286D01*
X13106381Y-14020286D02*
X13096857Y-14058381D01*
X13096857Y-14058381D02*
X13087333Y-14077428D01*
X13087333Y-14077428D02*
X13077810Y-14086952D01*
X13077810Y-14086952D02*
X13058762Y-14096476D01*
X13058762Y-14096476D02*
X13039714Y-14096476D01*
X13039714Y-14096476D02*
X13020667Y-14086952D01*
X13020667Y-14086952D02*
X13011143Y-14077428D01*
X13011143Y-14077428D02*
X13001619Y-14058381D01*
X13001619Y-14058381D02*
X12992095Y-14020286D01*
X12992095Y-14020286D02*
X12992095Y-13972667D01*
X12992095Y-13972667D02*
X13001619Y-13934571D01*
X13001619Y-13934571D02*
X13011143Y-13915524D01*
X13011143Y-13915524D02*
X13020667Y-13906000D01*
X13020667Y-13906000D02*
X13039714Y-13896476D01*
X13192095Y-14077428D02*
X13201619Y-14086952D01*
X13201619Y-14086952D02*
X13192095Y-14096476D01*
X13192095Y-14096476D02*
X13182571Y-14086952D01*
X13182571Y-14086952D02*
X13192095Y-14077428D01*
X13192095Y-14077428D02*
X13192095Y-14096476D01*
X13325429Y-13896476D02*
X13344476Y-13896476D01*
X13344476Y-13896476D02*
X13363524Y-13906000D01*
X13363524Y-13906000D02*
X13373048Y-13915524D01*
X13373048Y-13915524D02*
X13382571Y-13934571D01*
X13382571Y-13934571D02*
X13392095Y-13972667D01*
X13392095Y-13972667D02*
X13392095Y-14020286D01*
X13392095Y-14020286D02*
X13382571Y-14058381D01*
X13382571Y-14058381D02*
X13373048Y-14077428D01*
X13373048Y-14077428D02*
X13363524Y-14086952D01*
X13363524Y-14086952D02*
X13344476Y-14096476D01*
X13344476Y-14096476D02*
X13325429Y-14096476D01*
X13325429Y-14096476D02*
X13306381Y-14086952D01*
X13306381Y-14086952D02*
X13296857Y-14077428D01*
X13296857Y-14077428D02*
X13287333Y-14058381D01*
X13287333Y-14058381D02*
X13277810Y-14020286D01*
X13277810Y-14020286D02*
X13277810Y-13972667D01*
X13277810Y-13972667D02*
X13287333Y-13934571D01*
X13287333Y-13934571D02*
X13296857Y-13915524D01*
X13296857Y-13915524D02*
X13306381Y-13906000D01*
X13306381Y-13906000D02*
X13325429Y-13896476D01*
X13563524Y-13963143D02*
X13563524Y-14096476D01*
X13515905Y-13886952D02*
X13468286Y-14029809D01*
X13468286Y-14029809D02*
X13592095Y-14029809D01*
X13649238Y-13896476D02*
X13773048Y-13896476D01*
X13773048Y-13896476D02*
X13706381Y-13972667D01*
X13706381Y-13972667D02*
X13734952Y-13972667D01*
X13734952Y-13972667D02*
X13754000Y-13982190D01*
X13754000Y-13982190D02*
X13763524Y-13991714D01*
X13763524Y-13991714D02*
X13773048Y-14010762D01*
X13773048Y-14010762D02*
X13773048Y-14058381D01*
X13773048Y-14058381D02*
X13763524Y-14077428D01*
X13763524Y-14077428D02*
X13754000Y-14086952D01*
X13754000Y-14086952D02*
X13734952Y-14096476D01*
X13734952Y-14096476D02*
X13677810Y-14096476D01*
X13677810Y-14096476D02*
X13658762Y-14086952D01*
X13658762Y-14086952D02*
X13649238Y-14077428D01*
X13839714Y-13896476D02*
X13963524Y-13896476D01*
X13963524Y-13896476D02*
X13896857Y-13972667D01*
X13896857Y-13972667D02*
X13925429Y-13972667D01*
X13925429Y-13972667D02*
X13944476Y-13982190D01*
X13944476Y-13982190D02*
X13954000Y-13991714D01*
X13954000Y-13991714D02*
X13963524Y-14010762D01*
X13963524Y-14010762D02*
X13963524Y-14058381D01*
X13963524Y-14058381D02*
X13954000Y-14077428D01*
X13954000Y-14077428D02*
X13944476Y-14086952D01*
X13944476Y-14086952D02*
X13925429Y-14096476D01*
X13925429Y-14096476D02*
X13868286Y-14096476D01*
X13868286Y-14096476D02*
X13849238Y-14086952D01*
X13849238Y-14086952D02*
X13839714Y-14077428D01*
X14039714Y-13896476D02*
X14039714Y-13934571D01*
X14115905Y-13896476D02*
X14115905Y-13934571D01*
X14378762Y-14172667D02*
X14369238Y-14163143D01*
X14369238Y-14163143D02*
X14350191Y-14134571D01*
X14350191Y-14134571D02*
X14340667Y-14115524D01*
X14340667Y-14115524D02*
X14331143Y-14086952D01*
X14331143Y-14086952D02*
X14321619Y-14039333D01*
X14321619Y-14039333D02*
X14321619Y-14001238D01*
X14321619Y-14001238D02*
X14331143Y-13953619D01*
X14331143Y-13953619D02*
X14340667Y-13925048D01*
X14340667Y-13925048D02*
X14350191Y-13906000D01*
X14350191Y-13906000D02*
X14369238Y-13877428D01*
X14369238Y-13877428D02*
X14378762Y-13867905D01*
X14445429Y-13915524D02*
X14454952Y-13906000D01*
X14454952Y-13906000D02*
X14474000Y-13896476D01*
X14474000Y-13896476D02*
X14521619Y-13896476D01*
X14521619Y-13896476D02*
X14540667Y-13906000D01*
X14540667Y-13906000D02*
X14550191Y-13915524D01*
X14550191Y-13915524D02*
X14559714Y-13934571D01*
X14559714Y-13934571D02*
X14559714Y-13953619D01*
X14559714Y-13953619D02*
X14550191Y-13982190D01*
X14550191Y-13982190D02*
X14435905Y-14096476D01*
X14435905Y-14096476D02*
X14559714Y-14096476D01*
X14765429Y-14096476D02*
X14765429Y-13896476D01*
X14851143Y-14096476D02*
X14851143Y-13991714D01*
X14851143Y-13991714D02*
X14841619Y-13972667D01*
X14841619Y-13972667D02*
X14822572Y-13963143D01*
X14822572Y-13963143D02*
X14794000Y-13963143D01*
X14794000Y-13963143D02*
X14774952Y-13972667D01*
X14774952Y-13972667D02*
X14765429Y-13982190D01*
X14974952Y-14096476D02*
X14955905Y-14086952D01*
X14955905Y-14086952D02*
X14946381Y-14077428D01*
X14946381Y-14077428D02*
X14936857Y-14058381D01*
X14936857Y-14058381D02*
X14936857Y-14001238D01*
X14936857Y-14001238D02*
X14946381Y-13982190D01*
X14946381Y-13982190D02*
X14955905Y-13972667D01*
X14955905Y-13972667D02*
X14974952Y-13963143D01*
X14974952Y-13963143D02*
X15003524Y-13963143D01*
X15003524Y-13963143D02*
X15022572Y-13972667D01*
X15022572Y-13972667D02*
X15032095Y-13982190D01*
X15032095Y-13982190D02*
X15041619Y-14001238D01*
X15041619Y-14001238D02*
X15041619Y-14058381D01*
X15041619Y-14058381D02*
X15032095Y-14077428D01*
X15032095Y-14077428D02*
X15022572Y-14086952D01*
X15022572Y-14086952D02*
X15003524Y-14096476D01*
X15003524Y-14096476D02*
X14974952Y-14096476D01*
X15155905Y-14096476D02*
X15136857Y-14086952D01*
X15136857Y-14086952D02*
X15127333Y-14067905D01*
X15127333Y-14067905D02*
X15127333Y-13896476D01*
X15308286Y-14086952D02*
X15289238Y-14096476D01*
X15289238Y-14096476D02*
X15251143Y-14096476D01*
X15251143Y-14096476D02*
X15232095Y-14086952D01*
X15232095Y-14086952D02*
X15222572Y-14067905D01*
X15222572Y-14067905D02*
X15222572Y-13991714D01*
X15222572Y-13991714D02*
X15232095Y-13972667D01*
X15232095Y-13972667D02*
X15251143Y-13963143D01*
X15251143Y-13963143D02*
X15289238Y-13963143D01*
X15289238Y-13963143D02*
X15308286Y-13972667D01*
X15308286Y-13972667D02*
X15317810Y-13991714D01*
X15317810Y-13991714D02*
X15317810Y-14010762D01*
X15317810Y-14010762D02*
X15222572Y-14029809D01*
X15394000Y-14086952D02*
X15413048Y-14096476D01*
X15413048Y-14096476D02*
X15451143Y-14096476D01*
X15451143Y-14096476D02*
X15470191Y-14086952D01*
X15470191Y-14086952D02*
X15479714Y-14067905D01*
X15479714Y-14067905D02*
X15479714Y-14058381D01*
X15479714Y-14058381D02*
X15470191Y-14039333D01*
X15470191Y-14039333D02*
X15451143Y-14029809D01*
X15451143Y-14029809D02*
X15422572Y-14029809D01*
X15422572Y-14029809D02*
X15403524Y-14020286D01*
X15403524Y-14020286D02*
X15394000Y-14001238D01*
X15394000Y-14001238D02*
X15394000Y-13991714D01*
X15394000Y-13991714D02*
X15403524Y-13972667D01*
X15403524Y-13972667D02*
X15422572Y-13963143D01*
X15422572Y-13963143D02*
X15451143Y-13963143D01*
X15451143Y-13963143D02*
X15470191Y-13972667D01*
X15546381Y-14172667D02*
X15555905Y-14163143D01*
X15555905Y-14163143D02*
X15574953Y-14134571D01*
X15574953Y-14134571D02*
X15584476Y-14115524D01*
X15584476Y-14115524D02*
X15594000Y-14086952D01*
X15594000Y-14086952D02*
X15603524Y-14039333D01*
X15603524Y-14039333D02*
X15603524Y-14001238D01*
X15603524Y-14001238D02*
X15594000Y-13953619D01*
X15594000Y-13953619D02*
X15584476Y-13925048D01*
X15584476Y-13925048D02*
X15574953Y-13906000D01*
X15574953Y-13906000D02*
X15555905Y-13877428D01*
X15555905Y-13877428D02*
X15546381Y-13867905D01*
X15875905Y-14172667D02*
X15866381Y-14163143D01*
X15866381Y-14163143D02*
X15847333Y-14134571D01*
X15847333Y-14134571D02*
X15837810Y-14115524D01*
X15837810Y-14115524D02*
X15828286Y-14086952D01*
X15828286Y-14086952D02*
X15818762Y-14039333D01*
X15818762Y-14039333D02*
X15818762Y-14001238D01*
X15818762Y-14001238D02*
X15828286Y-13953619D01*
X15828286Y-13953619D02*
X15837810Y-13925048D01*
X15837810Y-13925048D02*
X15847333Y-13906000D01*
X15847333Y-13906000D02*
X15866381Y-13877428D01*
X15866381Y-13877428D02*
X15875905Y-13867905D01*
X15952095Y-13963143D02*
X15952095Y-14096476D01*
X15952095Y-13982190D02*
X15961619Y-13972667D01*
X15961619Y-13972667D02*
X15980667Y-13963143D01*
X15980667Y-13963143D02*
X16009238Y-13963143D01*
X16009238Y-13963143D02*
X16028286Y-13972667D01*
X16028286Y-13972667D02*
X16037810Y-13991714D01*
X16037810Y-13991714D02*
X16037810Y-14096476D01*
X16161619Y-14096476D02*
X16142572Y-14086952D01*
X16142572Y-14086952D02*
X16133048Y-14077428D01*
X16133048Y-14077428D02*
X16123524Y-14058381D01*
X16123524Y-14058381D02*
X16123524Y-14001238D01*
X16123524Y-14001238D02*
X16133048Y-13982190D01*
X16133048Y-13982190D02*
X16142572Y-13972667D01*
X16142572Y-13972667D02*
X16161619Y-13963143D01*
X16161619Y-13963143D02*
X16190191Y-13963143D01*
X16190191Y-13963143D02*
X16209238Y-13972667D01*
X16209238Y-13972667D02*
X16218762Y-13982190D01*
X16218762Y-13982190D02*
X16228286Y-14001238D01*
X16228286Y-14001238D02*
X16228286Y-14058381D01*
X16228286Y-14058381D02*
X16218762Y-14077428D01*
X16218762Y-14077428D02*
X16209238Y-14086952D01*
X16209238Y-14086952D02*
X16190191Y-14096476D01*
X16190191Y-14096476D02*
X16161619Y-14096476D01*
X16285429Y-13963143D02*
X16361619Y-13963143D01*
X16314000Y-13896476D02*
X16314000Y-14067905D01*
X16314000Y-14067905D02*
X16323524Y-14086952D01*
X16323524Y-14086952D02*
X16342572Y-14096476D01*
X16342572Y-14096476D02*
X16361619Y-14096476D01*
X16548286Y-13963143D02*
X16548286Y-14163143D01*
X16548286Y-13972667D02*
X16567333Y-13963143D01*
X16567333Y-13963143D02*
X16605429Y-13963143D01*
X16605429Y-13963143D02*
X16624476Y-13972667D01*
X16624476Y-13972667D02*
X16634000Y-13982190D01*
X16634000Y-13982190D02*
X16643524Y-14001238D01*
X16643524Y-14001238D02*
X16643524Y-14058381D01*
X16643524Y-14058381D02*
X16634000Y-14077428D01*
X16634000Y-14077428D02*
X16624476Y-14086952D01*
X16624476Y-14086952D02*
X16605429Y-14096476D01*
X16605429Y-14096476D02*
X16567333Y-14096476D01*
X16567333Y-14096476D02*
X16548286Y-14086952D01*
X16757810Y-14096476D02*
X16738762Y-14086952D01*
X16738762Y-14086952D02*
X16729238Y-14067905D01*
X16729238Y-14067905D02*
X16729238Y-13896476D01*
X16919715Y-14096476D02*
X16919715Y-13991714D01*
X16919715Y-13991714D02*
X16910191Y-13972667D01*
X16910191Y-13972667D02*
X16891143Y-13963143D01*
X16891143Y-13963143D02*
X16853048Y-13963143D01*
X16853048Y-13963143D02*
X16834000Y-13972667D01*
X16919715Y-14086952D02*
X16900667Y-14096476D01*
X16900667Y-14096476D02*
X16853048Y-14096476D01*
X16853048Y-14096476D02*
X16834000Y-14086952D01*
X16834000Y-14086952D02*
X16824476Y-14067905D01*
X16824476Y-14067905D02*
X16824476Y-14048857D01*
X16824476Y-14048857D02*
X16834000Y-14029809D01*
X16834000Y-14029809D02*
X16853048Y-14020286D01*
X16853048Y-14020286D02*
X16900667Y-14020286D01*
X16900667Y-14020286D02*
X16919715Y-14010762D01*
X16986381Y-13963143D02*
X17062572Y-13963143D01*
X17014953Y-13896476D02*
X17014953Y-14067905D01*
X17014953Y-14067905D02*
X17024476Y-14086952D01*
X17024476Y-14086952D02*
X17043524Y-14096476D01*
X17043524Y-14096476D02*
X17062572Y-14096476D01*
X17205429Y-14086952D02*
X17186381Y-14096476D01*
X17186381Y-14096476D02*
X17148286Y-14096476D01*
X17148286Y-14096476D02*
X17129238Y-14086952D01*
X17129238Y-14086952D02*
X17119715Y-14067905D01*
X17119715Y-14067905D02*
X17119715Y-13991714D01*
X17119715Y-13991714D02*
X17129238Y-13972667D01*
X17129238Y-13972667D02*
X17148286Y-13963143D01*
X17148286Y-13963143D02*
X17186381Y-13963143D01*
X17186381Y-13963143D02*
X17205429Y-13972667D01*
X17205429Y-13972667D02*
X17214953Y-13991714D01*
X17214953Y-13991714D02*
X17214953Y-14010762D01*
X17214953Y-14010762D02*
X17119715Y-14029809D01*
X17386381Y-14096476D02*
X17386381Y-13896476D01*
X17386381Y-14086952D02*
X17367334Y-14096476D01*
X17367334Y-14096476D02*
X17329238Y-14096476D01*
X17329238Y-14096476D02*
X17310191Y-14086952D01*
X17310191Y-14086952D02*
X17300667Y-14077428D01*
X17300667Y-14077428D02*
X17291143Y-14058381D01*
X17291143Y-14058381D02*
X17291143Y-14001238D01*
X17291143Y-14001238D02*
X17300667Y-13982190D01*
X17300667Y-13982190D02*
X17310191Y-13972667D01*
X17310191Y-13972667D02*
X17329238Y-13963143D01*
X17329238Y-13963143D02*
X17367334Y-13963143D01*
X17367334Y-13963143D02*
X17386381Y-13972667D01*
X17462572Y-14172667D02*
X17472096Y-14163143D01*
X17472096Y-14163143D02*
X17491143Y-14134571D01*
X17491143Y-14134571D02*
X17500667Y-14115524D01*
X17500667Y-14115524D02*
X17510191Y-14086952D01*
X17510191Y-14086952D02*
X17519715Y-14039333D01*
X17519715Y-14039333D02*
X17519715Y-14001238D01*
X17519715Y-14001238D02*
X17510191Y-13953619D01*
X17510191Y-13953619D02*
X17500667Y-13925048D01*
X17500667Y-13925048D02*
X17491143Y-13906000D01*
X17491143Y-13906000D02*
X17472096Y-13877428D01*
X17472096Y-13877428D02*
X17462572Y-13867905D01*
M02*
