%TF.GenerationSoftware,KiCad,Pcbnew,(7.0.0)*%
%TF.CreationDate,2023-02-28T19:32:44+01:00*%
%TF.ProjectId,Solar Cell offgrid Power,536f6c61-7220-4436-956c-6c206f666667,rev?*%
%TF.SameCoordinates,Original*%
%TF.FileFunction,Drillmap*%
%TF.FilePolarity,Positive*%
%FSLAX45Y45*%
G04 Gerber Fmt 4.5, Leading zero omitted, Abs format (unit mm)*
G04 Created by KiCad (PCBNEW (7.0.0)) date 2023-02-28 19:32:44*
%MOMM*%
%LPD*%
G01*
G04 APERTURE LIST*
%ADD10C,0.100000*%
%ADD11C,0.200000*%
%ADD12C,0.040000*%
%ADD13C,0.110000*%
G04 APERTURE END LIST*
D10*
X10919000Y-6569000D02*
X23371000Y-6569000D01*
X23371000Y-6569000D02*
X23371000Y-13378000D01*
X23371000Y-13378000D02*
X10919000Y-13378000D01*
X10919000Y-13378000D02*
X10919000Y-6569000D01*
D11*
D12*
X11497000Y-8515000D02*
X11537000Y-8555000D01*
X11537000Y-8515000D02*
X11497000Y-8555000D01*
D10*
X11379000Y-8829000D02*
G75*
G03*
X11379000Y-8829000I-50000J0D01*
G01*
X11379000Y-9083000D02*
G75*
G03*
X11379000Y-9083000I-50000J0D01*
G01*
X11379000Y-9337000D02*
G75*
G03*
X11379000Y-9337000I-50000J0D01*
G01*
X11379000Y-9591000D02*
G75*
G03*
X11379000Y-9591000I-50000J0D01*
G01*
X11379000Y-9845000D02*
G75*
G03*
X11379000Y-9845000I-50000J0D01*
G01*
X11379000Y-10099000D02*
G75*
G03*
X11379000Y-10099000I-50000J0D01*
G01*
X11379000Y-10353000D02*
G75*
G03*
X11379000Y-10353000I-50000J0D01*
G01*
X11379000Y-10607000D02*
G75*
G03*
X11379000Y-10607000I-50000J0D01*
G01*
X11379000Y-10861000D02*
G75*
G03*
X11379000Y-10861000I-50000J0D01*
G01*
X11379000Y-11115000D02*
G75*
G03*
X11379000Y-11115000I-50000J0D01*
G01*
X22408000Y-8825000D02*
G75*
G03*
X22408000Y-8825000I-50000J0D01*
G01*
X22408000Y-9079000D02*
G75*
G03*
X22408000Y-9079000I-50000J0D01*
G01*
X22408000Y-9333000D02*
G75*
G03*
X22408000Y-9333000I-50000J0D01*
G01*
X22408000Y-9587000D02*
G75*
G03*
X22408000Y-9587000I-50000J0D01*
G01*
X22408000Y-9841000D02*
G75*
G03*
X22408000Y-9841000I-50000J0D01*
G01*
X22408000Y-10095000D02*
G75*
G03*
X22408000Y-10095000I-50000J0D01*
G01*
X22408000Y-10349000D02*
G75*
G03*
X22408000Y-10349000I-50000J0D01*
G01*
X22408000Y-10603000D02*
G75*
G03*
X22408000Y-10603000I-50000J0D01*
G01*
X22408000Y-10857000D02*
G75*
G03*
X22408000Y-10857000I-50000J0D01*
G01*
X22408000Y-11111000D02*
G75*
G03*
X22408000Y-11111000I-50000J0D01*
G01*
D13*
X11283000Y-7878000D02*
X11283000Y-7988000D01*
X11228000Y-7933000D02*
X11338000Y-7933000D01*
X11283000Y-8132000D02*
X11283000Y-8242000D01*
X11228000Y-8187000D02*
X11338000Y-8187000D01*
D11*
X11161619Y-13676476D02*
X11161619Y-13476476D01*
X11161619Y-13476476D02*
X11209238Y-13476476D01*
X11209238Y-13476476D02*
X11237809Y-13486000D01*
X11237809Y-13486000D02*
X11256857Y-13505048D01*
X11256857Y-13505048D02*
X11266381Y-13524095D01*
X11266381Y-13524095D02*
X11275905Y-13562190D01*
X11275905Y-13562190D02*
X11275905Y-13590762D01*
X11275905Y-13590762D02*
X11266381Y-13628857D01*
X11266381Y-13628857D02*
X11256857Y-13647905D01*
X11256857Y-13647905D02*
X11237809Y-13666952D01*
X11237809Y-13666952D02*
X11209238Y-13676476D01*
X11209238Y-13676476D02*
X11161619Y-13676476D01*
X11361619Y-13676476D02*
X11361619Y-13543143D01*
X11361619Y-13581238D02*
X11371143Y-13562190D01*
X11371143Y-13562190D02*
X11380667Y-13552667D01*
X11380667Y-13552667D02*
X11399714Y-13543143D01*
X11399714Y-13543143D02*
X11418762Y-13543143D01*
X11485428Y-13676476D02*
X11485428Y-13543143D01*
X11485428Y-13476476D02*
X11475905Y-13486000D01*
X11475905Y-13486000D02*
X11485428Y-13495524D01*
X11485428Y-13495524D02*
X11494952Y-13486000D01*
X11494952Y-13486000D02*
X11485428Y-13476476D01*
X11485428Y-13476476D02*
X11485428Y-13495524D01*
X11609238Y-13676476D02*
X11590190Y-13666952D01*
X11590190Y-13666952D02*
X11580667Y-13647905D01*
X11580667Y-13647905D02*
X11580667Y-13476476D01*
X11714000Y-13676476D02*
X11694952Y-13666952D01*
X11694952Y-13666952D02*
X11685428Y-13647905D01*
X11685428Y-13647905D02*
X11685428Y-13476476D01*
X11910190Y-13676476D02*
X11910190Y-13476476D01*
X11910190Y-13476476D02*
X11976857Y-13619333D01*
X11976857Y-13619333D02*
X12043524Y-13476476D01*
X12043524Y-13476476D02*
X12043524Y-13676476D01*
X12224476Y-13676476D02*
X12224476Y-13571714D01*
X12224476Y-13571714D02*
X12214952Y-13552667D01*
X12214952Y-13552667D02*
X12195905Y-13543143D01*
X12195905Y-13543143D02*
X12157809Y-13543143D01*
X12157809Y-13543143D02*
X12138762Y-13552667D01*
X12224476Y-13666952D02*
X12205428Y-13676476D01*
X12205428Y-13676476D02*
X12157809Y-13676476D01*
X12157809Y-13676476D02*
X12138762Y-13666952D01*
X12138762Y-13666952D02*
X12129238Y-13647905D01*
X12129238Y-13647905D02*
X12129238Y-13628857D01*
X12129238Y-13628857D02*
X12138762Y-13609809D01*
X12138762Y-13609809D02*
X12157809Y-13600286D01*
X12157809Y-13600286D02*
X12205428Y-13600286D01*
X12205428Y-13600286D02*
X12224476Y-13590762D01*
X12319714Y-13543143D02*
X12319714Y-13743143D01*
X12319714Y-13552667D02*
X12338762Y-13543143D01*
X12338762Y-13543143D02*
X12376857Y-13543143D01*
X12376857Y-13543143D02*
X12395905Y-13552667D01*
X12395905Y-13552667D02*
X12405428Y-13562190D01*
X12405428Y-13562190D02*
X12414952Y-13581238D01*
X12414952Y-13581238D02*
X12414952Y-13638381D01*
X12414952Y-13638381D02*
X12405428Y-13657428D01*
X12405428Y-13657428D02*
X12395905Y-13666952D01*
X12395905Y-13666952D02*
X12376857Y-13676476D01*
X12376857Y-13676476D02*
X12338762Y-13676476D01*
X12338762Y-13676476D02*
X12319714Y-13666952D01*
X12500667Y-13657428D02*
X12510190Y-13666952D01*
X12510190Y-13666952D02*
X12500667Y-13676476D01*
X12500667Y-13676476D02*
X12491143Y-13666952D01*
X12491143Y-13666952D02*
X12500667Y-13657428D01*
X12500667Y-13657428D02*
X12500667Y-13676476D01*
X12500667Y-13552667D02*
X12510190Y-13562190D01*
X12510190Y-13562190D02*
X12500667Y-13571714D01*
X12500667Y-13571714D02*
X12491143Y-13562190D01*
X12491143Y-13562190D02*
X12500667Y-13552667D01*
X12500667Y-13552667D02*
X12500667Y-13571714D01*
D12*
X10874000Y-14003000D02*
X10914000Y-14043000D01*
X10914000Y-14003000D02*
X10874000Y-14043000D01*
D11*
X11199714Y-13896476D02*
X11218762Y-13896476D01*
X11218762Y-13896476D02*
X11237809Y-13906000D01*
X11237809Y-13906000D02*
X11247333Y-13915524D01*
X11247333Y-13915524D02*
X11256857Y-13934571D01*
X11256857Y-13934571D02*
X11266381Y-13972667D01*
X11266381Y-13972667D02*
X11266381Y-14020286D01*
X11266381Y-14020286D02*
X11256857Y-14058381D01*
X11256857Y-14058381D02*
X11247333Y-14077428D01*
X11247333Y-14077428D02*
X11237809Y-14086952D01*
X11237809Y-14086952D02*
X11218762Y-14096476D01*
X11218762Y-14096476D02*
X11199714Y-14096476D01*
X11199714Y-14096476D02*
X11180667Y-14086952D01*
X11180667Y-14086952D02*
X11171143Y-14077428D01*
X11171143Y-14077428D02*
X11161619Y-14058381D01*
X11161619Y-14058381D02*
X11152095Y-14020286D01*
X11152095Y-14020286D02*
X11152095Y-13972667D01*
X11152095Y-13972667D02*
X11161619Y-13934571D01*
X11161619Y-13934571D02*
X11171143Y-13915524D01*
X11171143Y-13915524D02*
X11180667Y-13906000D01*
X11180667Y-13906000D02*
X11199714Y-13896476D01*
X11352095Y-14077428D02*
X11361619Y-14086952D01*
X11361619Y-14086952D02*
X11352095Y-14096476D01*
X11352095Y-14096476D02*
X11342571Y-14086952D01*
X11342571Y-14086952D02*
X11352095Y-14077428D01*
X11352095Y-14077428D02*
X11352095Y-14096476D01*
X11533048Y-13963143D02*
X11533048Y-14096476D01*
X11485428Y-13886952D02*
X11437809Y-14029809D01*
X11437809Y-14029809D02*
X11561619Y-14029809D01*
X11675905Y-13896476D02*
X11694952Y-13896476D01*
X11694952Y-13896476D02*
X11714000Y-13906000D01*
X11714000Y-13906000D02*
X11723524Y-13915524D01*
X11723524Y-13915524D02*
X11733048Y-13934571D01*
X11733048Y-13934571D02*
X11742571Y-13972667D01*
X11742571Y-13972667D02*
X11742571Y-14020286D01*
X11742571Y-14020286D02*
X11733048Y-14058381D01*
X11733048Y-14058381D02*
X11723524Y-14077428D01*
X11723524Y-14077428D02*
X11714000Y-14086952D01*
X11714000Y-14086952D02*
X11694952Y-14096476D01*
X11694952Y-14096476D02*
X11675905Y-14096476D01*
X11675905Y-14096476D02*
X11656857Y-14086952D01*
X11656857Y-14086952D02*
X11647333Y-14077428D01*
X11647333Y-14077428D02*
X11637809Y-14058381D01*
X11637809Y-14058381D02*
X11628286Y-14020286D01*
X11628286Y-14020286D02*
X11628286Y-13972667D01*
X11628286Y-13972667D02*
X11637809Y-13934571D01*
X11637809Y-13934571D02*
X11647333Y-13915524D01*
X11647333Y-13915524D02*
X11656857Y-13906000D01*
X11656857Y-13906000D02*
X11675905Y-13896476D01*
X11866381Y-13896476D02*
X11885429Y-13896476D01*
X11885429Y-13896476D02*
X11904476Y-13906000D01*
X11904476Y-13906000D02*
X11914000Y-13915524D01*
X11914000Y-13915524D02*
X11923524Y-13934571D01*
X11923524Y-13934571D02*
X11933048Y-13972667D01*
X11933048Y-13972667D02*
X11933048Y-14020286D01*
X11933048Y-14020286D02*
X11923524Y-14058381D01*
X11923524Y-14058381D02*
X11914000Y-14077428D01*
X11914000Y-14077428D02*
X11904476Y-14086952D01*
X11904476Y-14086952D02*
X11885429Y-14096476D01*
X11885429Y-14096476D02*
X11866381Y-14096476D01*
X11866381Y-14096476D02*
X11847333Y-14086952D01*
X11847333Y-14086952D02*
X11837809Y-14077428D01*
X11837809Y-14077428D02*
X11828286Y-14058381D01*
X11828286Y-14058381D02*
X11818762Y-14020286D01*
X11818762Y-14020286D02*
X11818762Y-13972667D01*
X11818762Y-13972667D02*
X11828286Y-13934571D01*
X11828286Y-13934571D02*
X11837809Y-13915524D01*
X11837809Y-13915524D02*
X11847333Y-13906000D01*
X11847333Y-13906000D02*
X11866381Y-13896476D01*
X12018762Y-14096476D02*
X12018762Y-13963143D01*
X12018762Y-13982190D02*
X12028286Y-13972667D01*
X12028286Y-13972667D02*
X12047333Y-13963143D01*
X12047333Y-13963143D02*
X12075905Y-13963143D01*
X12075905Y-13963143D02*
X12094952Y-13972667D01*
X12094952Y-13972667D02*
X12104476Y-13991714D01*
X12104476Y-13991714D02*
X12104476Y-14096476D01*
X12104476Y-13991714D02*
X12114000Y-13972667D01*
X12114000Y-13972667D02*
X12133048Y-13963143D01*
X12133048Y-13963143D02*
X12161619Y-13963143D01*
X12161619Y-13963143D02*
X12180667Y-13972667D01*
X12180667Y-13972667D02*
X12190190Y-13991714D01*
X12190190Y-13991714D02*
X12190190Y-14096476D01*
X12285429Y-14096476D02*
X12285429Y-13963143D01*
X12285429Y-13982190D02*
X12294952Y-13972667D01*
X12294952Y-13972667D02*
X12314000Y-13963143D01*
X12314000Y-13963143D02*
X12342571Y-13963143D01*
X12342571Y-13963143D02*
X12361619Y-13972667D01*
X12361619Y-13972667D02*
X12371143Y-13991714D01*
X12371143Y-13991714D02*
X12371143Y-14096476D01*
X12371143Y-13991714D02*
X12380667Y-13972667D01*
X12380667Y-13972667D02*
X12399714Y-13963143D01*
X12399714Y-13963143D02*
X12428286Y-13963143D01*
X12428286Y-13963143D02*
X12447333Y-13972667D01*
X12447333Y-13972667D02*
X12456857Y-13991714D01*
X12456857Y-13991714D02*
X12456857Y-14096476D01*
X12814952Y-13886952D02*
X12643524Y-14144095D01*
X13039714Y-13896476D02*
X13058762Y-13896476D01*
X13058762Y-13896476D02*
X13077810Y-13906000D01*
X13077810Y-13906000D02*
X13087333Y-13915524D01*
X13087333Y-13915524D02*
X13096857Y-13934571D01*
X13096857Y-13934571D02*
X13106381Y-13972667D01*
X13106381Y-13972667D02*
X13106381Y-14020286D01*
X13106381Y-14020286D02*
X13096857Y-14058381D01*
X13096857Y-14058381D02*
X13087333Y-14077428D01*
X13087333Y-14077428D02*
X13077810Y-14086952D01*
X13077810Y-14086952D02*
X13058762Y-14096476D01*
X13058762Y-14096476D02*
X13039714Y-14096476D01*
X13039714Y-14096476D02*
X13020667Y-14086952D01*
X13020667Y-14086952D02*
X13011143Y-14077428D01*
X13011143Y-14077428D02*
X13001619Y-14058381D01*
X13001619Y-14058381D02*
X12992095Y-14020286D01*
X12992095Y-14020286D02*
X12992095Y-13972667D01*
X12992095Y-13972667D02*
X13001619Y-13934571D01*
X13001619Y-13934571D02*
X13011143Y-13915524D01*
X13011143Y-13915524D02*
X13020667Y-13906000D01*
X13020667Y-13906000D02*
X13039714Y-13896476D01*
X13192095Y-14077428D02*
X13201619Y-14086952D01*
X13201619Y-14086952D02*
X13192095Y-14096476D01*
X13192095Y-14096476D02*
X13182571Y-14086952D01*
X13182571Y-14086952D02*
X13192095Y-14077428D01*
X13192095Y-14077428D02*
X13192095Y-14096476D01*
X13325429Y-13896476D02*
X13344476Y-13896476D01*
X13344476Y-13896476D02*
X13363524Y-13906000D01*
X13363524Y-13906000D02*
X13373048Y-13915524D01*
X13373048Y-13915524D02*
X13382571Y-13934571D01*
X13382571Y-13934571D02*
X13392095Y-13972667D01*
X13392095Y-13972667D02*
X13392095Y-14020286D01*
X13392095Y-14020286D02*
X13382571Y-14058381D01*
X13382571Y-14058381D02*
X13373048Y-14077428D01*
X13373048Y-14077428D02*
X13363524Y-14086952D01*
X13363524Y-14086952D02*
X13344476Y-14096476D01*
X13344476Y-14096476D02*
X13325429Y-14096476D01*
X13325429Y-14096476D02*
X13306381Y-14086952D01*
X13306381Y-14086952D02*
X13296857Y-14077428D01*
X13296857Y-14077428D02*
X13287333Y-14058381D01*
X13287333Y-14058381D02*
X13277810Y-14020286D01*
X13277810Y-14020286D02*
X13277810Y-13972667D01*
X13277810Y-13972667D02*
X13287333Y-13934571D01*
X13287333Y-13934571D02*
X13296857Y-13915524D01*
X13296857Y-13915524D02*
X13306381Y-13906000D01*
X13306381Y-13906000D02*
X13325429Y-13896476D01*
X13582571Y-14096476D02*
X13468286Y-14096476D01*
X13525429Y-14096476D02*
X13525429Y-13896476D01*
X13525429Y-13896476D02*
X13506381Y-13925048D01*
X13506381Y-13925048D02*
X13487333Y-13944095D01*
X13487333Y-13944095D02*
X13468286Y-13953619D01*
X13763524Y-13896476D02*
X13668286Y-13896476D01*
X13668286Y-13896476D02*
X13658762Y-13991714D01*
X13658762Y-13991714D02*
X13668286Y-13982190D01*
X13668286Y-13982190D02*
X13687333Y-13972667D01*
X13687333Y-13972667D02*
X13734952Y-13972667D01*
X13734952Y-13972667D02*
X13754000Y-13982190D01*
X13754000Y-13982190D02*
X13763524Y-13991714D01*
X13763524Y-13991714D02*
X13773048Y-14010762D01*
X13773048Y-14010762D02*
X13773048Y-14058381D01*
X13773048Y-14058381D02*
X13763524Y-14077428D01*
X13763524Y-14077428D02*
X13754000Y-14086952D01*
X13754000Y-14086952D02*
X13734952Y-14096476D01*
X13734952Y-14096476D02*
X13687333Y-14096476D01*
X13687333Y-14096476D02*
X13668286Y-14086952D01*
X13668286Y-14086952D02*
X13658762Y-14077428D01*
X13839714Y-13896476D02*
X13973048Y-13896476D01*
X13973048Y-13896476D02*
X13887333Y-14096476D01*
X14039714Y-13896476D02*
X14039714Y-13934571D01*
X14115905Y-13896476D02*
X14115905Y-13934571D01*
X14378762Y-14172667D02*
X14369238Y-14163143D01*
X14369238Y-14163143D02*
X14350191Y-14134571D01*
X14350191Y-14134571D02*
X14340667Y-14115524D01*
X14340667Y-14115524D02*
X14331143Y-14086952D01*
X14331143Y-14086952D02*
X14321619Y-14039333D01*
X14321619Y-14039333D02*
X14321619Y-14001238D01*
X14321619Y-14001238D02*
X14331143Y-13953619D01*
X14331143Y-13953619D02*
X14340667Y-13925048D01*
X14340667Y-13925048D02*
X14350191Y-13906000D01*
X14350191Y-13906000D02*
X14369238Y-13877428D01*
X14369238Y-13877428D02*
X14378762Y-13867905D01*
X14559714Y-14096476D02*
X14445429Y-14096476D01*
X14502571Y-14096476D02*
X14502571Y-13896476D01*
X14502571Y-13896476D02*
X14483524Y-13925048D01*
X14483524Y-13925048D02*
X14464476Y-13944095D01*
X14464476Y-13944095D02*
X14445429Y-13953619D01*
X14765429Y-14096476D02*
X14765429Y-13896476D01*
X14851143Y-14096476D02*
X14851143Y-13991714D01*
X14851143Y-13991714D02*
X14841619Y-13972667D01*
X14841619Y-13972667D02*
X14822572Y-13963143D01*
X14822572Y-13963143D02*
X14794000Y-13963143D01*
X14794000Y-13963143D02*
X14774952Y-13972667D01*
X14774952Y-13972667D02*
X14765429Y-13982190D01*
X14974952Y-14096476D02*
X14955905Y-14086952D01*
X14955905Y-14086952D02*
X14946381Y-14077428D01*
X14946381Y-14077428D02*
X14936857Y-14058381D01*
X14936857Y-14058381D02*
X14936857Y-14001238D01*
X14936857Y-14001238D02*
X14946381Y-13982190D01*
X14946381Y-13982190D02*
X14955905Y-13972667D01*
X14955905Y-13972667D02*
X14974952Y-13963143D01*
X14974952Y-13963143D02*
X15003524Y-13963143D01*
X15003524Y-13963143D02*
X15022572Y-13972667D01*
X15022572Y-13972667D02*
X15032095Y-13982190D01*
X15032095Y-13982190D02*
X15041619Y-14001238D01*
X15041619Y-14001238D02*
X15041619Y-14058381D01*
X15041619Y-14058381D02*
X15032095Y-14077428D01*
X15032095Y-14077428D02*
X15022572Y-14086952D01*
X15022572Y-14086952D02*
X15003524Y-14096476D01*
X15003524Y-14096476D02*
X14974952Y-14096476D01*
X15155905Y-14096476D02*
X15136857Y-14086952D01*
X15136857Y-14086952D02*
X15127333Y-14067905D01*
X15127333Y-14067905D02*
X15127333Y-13896476D01*
X15308286Y-14086952D02*
X15289238Y-14096476D01*
X15289238Y-14096476D02*
X15251143Y-14096476D01*
X15251143Y-14096476D02*
X15232095Y-14086952D01*
X15232095Y-14086952D02*
X15222572Y-14067905D01*
X15222572Y-14067905D02*
X15222572Y-13991714D01*
X15222572Y-13991714D02*
X15232095Y-13972667D01*
X15232095Y-13972667D02*
X15251143Y-13963143D01*
X15251143Y-13963143D02*
X15289238Y-13963143D01*
X15289238Y-13963143D02*
X15308286Y-13972667D01*
X15308286Y-13972667D02*
X15317810Y-13991714D01*
X15317810Y-13991714D02*
X15317810Y-14010762D01*
X15317810Y-14010762D02*
X15222572Y-14029809D01*
X15384476Y-14172667D02*
X15394000Y-14163143D01*
X15394000Y-14163143D02*
X15413048Y-14134571D01*
X15413048Y-14134571D02*
X15422572Y-14115524D01*
X15422572Y-14115524D02*
X15432095Y-14086952D01*
X15432095Y-14086952D02*
X15441619Y-14039333D01*
X15441619Y-14039333D02*
X15441619Y-14001238D01*
X15441619Y-14001238D02*
X15432095Y-13953619D01*
X15432095Y-13953619D02*
X15422572Y-13925048D01*
X15422572Y-13925048D02*
X15413048Y-13906000D01*
X15413048Y-13906000D02*
X15394000Y-13877428D01*
X15394000Y-13877428D02*
X15384476Y-13867905D01*
D10*
X10914000Y-14287000D02*
G75*
G03*
X10914000Y-14287000I-50000J0D01*
G01*
D11*
X11266381Y-14360476D02*
X11152095Y-14360476D01*
X11209238Y-14360476D02*
X11209238Y-14160476D01*
X11209238Y-14160476D02*
X11190190Y-14189048D01*
X11190190Y-14189048D02*
X11171143Y-14208095D01*
X11171143Y-14208095D02*
X11152095Y-14217619D01*
X11352095Y-14341428D02*
X11361619Y-14350952D01*
X11361619Y-14350952D02*
X11352095Y-14360476D01*
X11352095Y-14360476D02*
X11342571Y-14350952D01*
X11342571Y-14350952D02*
X11352095Y-14341428D01*
X11352095Y-14341428D02*
X11352095Y-14360476D01*
X11485428Y-14160476D02*
X11504476Y-14160476D01*
X11504476Y-14160476D02*
X11523524Y-14170000D01*
X11523524Y-14170000D02*
X11533048Y-14179524D01*
X11533048Y-14179524D02*
X11542571Y-14198571D01*
X11542571Y-14198571D02*
X11552095Y-14236667D01*
X11552095Y-14236667D02*
X11552095Y-14284286D01*
X11552095Y-14284286D02*
X11542571Y-14322381D01*
X11542571Y-14322381D02*
X11533048Y-14341428D01*
X11533048Y-14341428D02*
X11523524Y-14350952D01*
X11523524Y-14350952D02*
X11504476Y-14360476D01*
X11504476Y-14360476D02*
X11485428Y-14360476D01*
X11485428Y-14360476D02*
X11466381Y-14350952D01*
X11466381Y-14350952D02*
X11456857Y-14341428D01*
X11456857Y-14341428D02*
X11447333Y-14322381D01*
X11447333Y-14322381D02*
X11437809Y-14284286D01*
X11437809Y-14284286D02*
X11437809Y-14236667D01*
X11437809Y-14236667D02*
X11447333Y-14198571D01*
X11447333Y-14198571D02*
X11456857Y-14179524D01*
X11456857Y-14179524D02*
X11466381Y-14170000D01*
X11466381Y-14170000D02*
X11485428Y-14160476D01*
X11675905Y-14160476D02*
X11694952Y-14160476D01*
X11694952Y-14160476D02*
X11714000Y-14170000D01*
X11714000Y-14170000D02*
X11723524Y-14179524D01*
X11723524Y-14179524D02*
X11733048Y-14198571D01*
X11733048Y-14198571D02*
X11742571Y-14236667D01*
X11742571Y-14236667D02*
X11742571Y-14284286D01*
X11742571Y-14284286D02*
X11733048Y-14322381D01*
X11733048Y-14322381D02*
X11723524Y-14341428D01*
X11723524Y-14341428D02*
X11714000Y-14350952D01*
X11714000Y-14350952D02*
X11694952Y-14360476D01*
X11694952Y-14360476D02*
X11675905Y-14360476D01*
X11675905Y-14360476D02*
X11656857Y-14350952D01*
X11656857Y-14350952D02*
X11647333Y-14341428D01*
X11647333Y-14341428D02*
X11637809Y-14322381D01*
X11637809Y-14322381D02*
X11628286Y-14284286D01*
X11628286Y-14284286D02*
X11628286Y-14236667D01*
X11628286Y-14236667D02*
X11637809Y-14198571D01*
X11637809Y-14198571D02*
X11647333Y-14179524D01*
X11647333Y-14179524D02*
X11656857Y-14170000D01*
X11656857Y-14170000D02*
X11675905Y-14160476D01*
X11866381Y-14160476D02*
X11885429Y-14160476D01*
X11885429Y-14160476D02*
X11904476Y-14170000D01*
X11904476Y-14170000D02*
X11914000Y-14179524D01*
X11914000Y-14179524D02*
X11923524Y-14198571D01*
X11923524Y-14198571D02*
X11933048Y-14236667D01*
X11933048Y-14236667D02*
X11933048Y-14284286D01*
X11933048Y-14284286D02*
X11923524Y-14322381D01*
X11923524Y-14322381D02*
X11914000Y-14341428D01*
X11914000Y-14341428D02*
X11904476Y-14350952D01*
X11904476Y-14350952D02*
X11885429Y-14360476D01*
X11885429Y-14360476D02*
X11866381Y-14360476D01*
X11866381Y-14360476D02*
X11847333Y-14350952D01*
X11847333Y-14350952D02*
X11837809Y-14341428D01*
X11837809Y-14341428D02*
X11828286Y-14322381D01*
X11828286Y-14322381D02*
X11818762Y-14284286D01*
X11818762Y-14284286D02*
X11818762Y-14236667D01*
X11818762Y-14236667D02*
X11828286Y-14198571D01*
X11828286Y-14198571D02*
X11837809Y-14179524D01*
X11837809Y-14179524D02*
X11847333Y-14170000D01*
X11847333Y-14170000D02*
X11866381Y-14160476D01*
X12018762Y-14360476D02*
X12018762Y-14227143D01*
X12018762Y-14246190D02*
X12028286Y-14236667D01*
X12028286Y-14236667D02*
X12047333Y-14227143D01*
X12047333Y-14227143D02*
X12075905Y-14227143D01*
X12075905Y-14227143D02*
X12094952Y-14236667D01*
X12094952Y-14236667D02*
X12104476Y-14255714D01*
X12104476Y-14255714D02*
X12104476Y-14360476D01*
X12104476Y-14255714D02*
X12114000Y-14236667D01*
X12114000Y-14236667D02*
X12133048Y-14227143D01*
X12133048Y-14227143D02*
X12161619Y-14227143D01*
X12161619Y-14227143D02*
X12180667Y-14236667D01*
X12180667Y-14236667D02*
X12190190Y-14255714D01*
X12190190Y-14255714D02*
X12190190Y-14360476D01*
X12285429Y-14360476D02*
X12285429Y-14227143D01*
X12285429Y-14246190D02*
X12294952Y-14236667D01*
X12294952Y-14236667D02*
X12314000Y-14227143D01*
X12314000Y-14227143D02*
X12342571Y-14227143D01*
X12342571Y-14227143D02*
X12361619Y-14236667D01*
X12361619Y-14236667D02*
X12371143Y-14255714D01*
X12371143Y-14255714D02*
X12371143Y-14360476D01*
X12371143Y-14255714D02*
X12380667Y-14236667D01*
X12380667Y-14236667D02*
X12399714Y-14227143D01*
X12399714Y-14227143D02*
X12428286Y-14227143D01*
X12428286Y-14227143D02*
X12447333Y-14236667D01*
X12447333Y-14236667D02*
X12456857Y-14255714D01*
X12456857Y-14255714D02*
X12456857Y-14360476D01*
X12814952Y-14150952D02*
X12643524Y-14408095D01*
X13039714Y-14160476D02*
X13058762Y-14160476D01*
X13058762Y-14160476D02*
X13077810Y-14170000D01*
X13077810Y-14170000D02*
X13087333Y-14179524D01*
X13087333Y-14179524D02*
X13096857Y-14198571D01*
X13096857Y-14198571D02*
X13106381Y-14236667D01*
X13106381Y-14236667D02*
X13106381Y-14284286D01*
X13106381Y-14284286D02*
X13096857Y-14322381D01*
X13096857Y-14322381D02*
X13087333Y-14341428D01*
X13087333Y-14341428D02*
X13077810Y-14350952D01*
X13077810Y-14350952D02*
X13058762Y-14360476D01*
X13058762Y-14360476D02*
X13039714Y-14360476D01*
X13039714Y-14360476D02*
X13020667Y-14350952D01*
X13020667Y-14350952D02*
X13011143Y-14341428D01*
X13011143Y-14341428D02*
X13001619Y-14322381D01*
X13001619Y-14322381D02*
X12992095Y-14284286D01*
X12992095Y-14284286D02*
X12992095Y-14236667D01*
X12992095Y-14236667D02*
X13001619Y-14198571D01*
X13001619Y-14198571D02*
X13011143Y-14179524D01*
X13011143Y-14179524D02*
X13020667Y-14170000D01*
X13020667Y-14170000D02*
X13039714Y-14160476D01*
X13192095Y-14341428D02*
X13201619Y-14350952D01*
X13201619Y-14350952D02*
X13192095Y-14360476D01*
X13192095Y-14360476D02*
X13182571Y-14350952D01*
X13182571Y-14350952D02*
X13192095Y-14341428D01*
X13192095Y-14341428D02*
X13192095Y-14360476D01*
X13325429Y-14160476D02*
X13344476Y-14160476D01*
X13344476Y-14160476D02*
X13363524Y-14170000D01*
X13363524Y-14170000D02*
X13373048Y-14179524D01*
X13373048Y-14179524D02*
X13382571Y-14198571D01*
X13382571Y-14198571D02*
X13392095Y-14236667D01*
X13392095Y-14236667D02*
X13392095Y-14284286D01*
X13392095Y-14284286D02*
X13382571Y-14322381D01*
X13382571Y-14322381D02*
X13373048Y-14341428D01*
X13373048Y-14341428D02*
X13363524Y-14350952D01*
X13363524Y-14350952D02*
X13344476Y-14360476D01*
X13344476Y-14360476D02*
X13325429Y-14360476D01*
X13325429Y-14360476D02*
X13306381Y-14350952D01*
X13306381Y-14350952D02*
X13296857Y-14341428D01*
X13296857Y-14341428D02*
X13287333Y-14322381D01*
X13287333Y-14322381D02*
X13277810Y-14284286D01*
X13277810Y-14284286D02*
X13277810Y-14236667D01*
X13277810Y-14236667D02*
X13287333Y-14198571D01*
X13287333Y-14198571D02*
X13296857Y-14179524D01*
X13296857Y-14179524D02*
X13306381Y-14170000D01*
X13306381Y-14170000D02*
X13325429Y-14160476D01*
X13458762Y-14160476D02*
X13582571Y-14160476D01*
X13582571Y-14160476D02*
X13515905Y-14236667D01*
X13515905Y-14236667D02*
X13544476Y-14236667D01*
X13544476Y-14236667D02*
X13563524Y-14246190D01*
X13563524Y-14246190D02*
X13573048Y-14255714D01*
X13573048Y-14255714D02*
X13582571Y-14274762D01*
X13582571Y-14274762D02*
X13582571Y-14322381D01*
X13582571Y-14322381D02*
X13573048Y-14341428D01*
X13573048Y-14341428D02*
X13563524Y-14350952D01*
X13563524Y-14350952D02*
X13544476Y-14360476D01*
X13544476Y-14360476D02*
X13487333Y-14360476D01*
X13487333Y-14360476D02*
X13468286Y-14350952D01*
X13468286Y-14350952D02*
X13458762Y-14341428D01*
X13677810Y-14360476D02*
X13715905Y-14360476D01*
X13715905Y-14360476D02*
X13734952Y-14350952D01*
X13734952Y-14350952D02*
X13744476Y-14341428D01*
X13744476Y-14341428D02*
X13763524Y-14312857D01*
X13763524Y-14312857D02*
X13773048Y-14274762D01*
X13773048Y-14274762D02*
X13773048Y-14198571D01*
X13773048Y-14198571D02*
X13763524Y-14179524D01*
X13763524Y-14179524D02*
X13754000Y-14170000D01*
X13754000Y-14170000D02*
X13734952Y-14160476D01*
X13734952Y-14160476D02*
X13696857Y-14160476D01*
X13696857Y-14160476D02*
X13677810Y-14170000D01*
X13677810Y-14170000D02*
X13668286Y-14179524D01*
X13668286Y-14179524D02*
X13658762Y-14198571D01*
X13658762Y-14198571D02*
X13658762Y-14246190D01*
X13658762Y-14246190D02*
X13668286Y-14265238D01*
X13668286Y-14265238D02*
X13677810Y-14274762D01*
X13677810Y-14274762D02*
X13696857Y-14284286D01*
X13696857Y-14284286D02*
X13734952Y-14284286D01*
X13734952Y-14284286D02*
X13754000Y-14274762D01*
X13754000Y-14274762D02*
X13763524Y-14265238D01*
X13763524Y-14265238D02*
X13773048Y-14246190D01*
X13944476Y-14227143D02*
X13944476Y-14360476D01*
X13896857Y-14150952D02*
X13849238Y-14293809D01*
X13849238Y-14293809D02*
X13973048Y-14293809D01*
X14039714Y-14160476D02*
X14039714Y-14198571D01*
X14115905Y-14160476D02*
X14115905Y-14198571D01*
X14378762Y-14436667D02*
X14369238Y-14427143D01*
X14369238Y-14427143D02*
X14350191Y-14398571D01*
X14350191Y-14398571D02*
X14340667Y-14379524D01*
X14340667Y-14379524D02*
X14331143Y-14350952D01*
X14331143Y-14350952D02*
X14321619Y-14303333D01*
X14321619Y-14303333D02*
X14321619Y-14265238D01*
X14321619Y-14265238D02*
X14331143Y-14217619D01*
X14331143Y-14217619D02*
X14340667Y-14189048D01*
X14340667Y-14189048D02*
X14350191Y-14170000D01*
X14350191Y-14170000D02*
X14369238Y-14141428D01*
X14369238Y-14141428D02*
X14378762Y-14131905D01*
X14445429Y-14179524D02*
X14454952Y-14170000D01*
X14454952Y-14170000D02*
X14474000Y-14160476D01*
X14474000Y-14160476D02*
X14521619Y-14160476D01*
X14521619Y-14160476D02*
X14540667Y-14170000D01*
X14540667Y-14170000D02*
X14550191Y-14179524D01*
X14550191Y-14179524D02*
X14559714Y-14198571D01*
X14559714Y-14198571D02*
X14559714Y-14217619D01*
X14559714Y-14217619D02*
X14550191Y-14246190D01*
X14550191Y-14246190D02*
X14435905Y-14360476D01*
X14435905Y-14360476D02*
X14559714Y-14360476D01*
X14683524Y-14160476D02*
X14702572Y-14160476D01*
X14702572Y-14160476D02*
X14721619Y-14170000D01*
X14721619Y-14170000D02*
X14731143Y-14179524D01*
X14731143Y-14179524D02*
X14740667Y-14198571D01*
X14740667Y-14198571D02*
X14750191Y-14236667D01*
X14750191Y-14236667D02*
X14750191Y-14284286D01*
X14750191Y-14284286D02*
X14740667Y-14322381D01*
X14740667Y-14322381D02*
X14731143Y-14341428D01*
X14731143Y-14341428D02*
X14721619Y-14350952D01*
X14721619Y-14350952D02*
X14702572Y-14360476D01*
X14702572Y-14360476D02*
X14683524Y-14360476D01*
X14683524Y-14360476D02*
X14664476Y-14350952D01*
X14664476Y-14350952D02*
X14654952Y-14341428D01*
X14654952Y-14341428D02*
X14645429Y-14322381D01*
X14645429Y-14322381D02*
X14635905Y-14284286D01*
X14635905Y-14284286D02*
X14635905Y-14236667D01*
X14635905Y-14236667D02*
X14645429Y-14198571D01*
X14645429Y-14198571D02*
X14654952Y-14179524D01*
X14654952Y-14179524D02*
X14664476Y-14170000D01*
X14664476Y-14170000D02*
X14683524Y-14160476D01*
X14955905Y-14360476D02*
X14955905Y-14160476D01*
X15041619Y-14360476D02*
X15041619Y-14255714D01*
X15041619Y-14255714D02*
X15032095Y-14236667D01*
X15032095Y-14236667D02*
X15013048Y-14227143D01*
X15013048Y-14227143D02*
X14984476Y-14227143D01*
X14984476Y-14227143D02*
X14965429Y-14236667D01*
X14965429Y-14236667D02*
X14955905Y-14246190D01*
X15165429Y-14360476D02*
X15146381Y-14350952D01*
X15146381Y-14350952D02*
X15136857Y-14341428D01*
X15136857Y-14341428D02*
X15127333Y-14322381D01*
X15127333Y-14322381D02*
X15127333Y-14265238D01*
X15127333Y-14265238D02*
X15136857Y-14246190D01*
X15136857Y-14246190D02*
X15146381Y-14236667D01*
X15146381Y-14236667D02*
X15165429Y-14227143D01*
X15165429Y-14227143D02*
X15194000Y-14227143D01*
X15194000Y-14227143D02*
X15213048Y-14236667D01*
X15213048Y-14236667D02*
X15222572Y-14246190D01*
X15222572Y-14246190D02*
X15232095Y-14265238D01*
X15232095Y-14265238D02*
X15232095Y-14322381D01*
X15232095Y-14322381D02*
X15222572Y-14341428D01*
X15222572Y-14341428D02*
X15213048Y-14350952D01*
X15213048Y-14350952D02*
X15194000Y-14360476D01*
X15194000Y-14360476D02*
X15165429Y-14360476D01*
X15346381Y-14360476D02*
X15327333Y-14350952D01*
X15327333Y-14350952D02*
X15317810Y-14331905D01*
X15317810Y-14331905D02*
X15317810Y-14160476D01*
X15498762Y-14350952D02*
X15479714Y-14360476D01*
X15479714Y-14360476D02*
X15441619Y-14360476D01*
X15441619Y-14360476D02*
X15422572Y-14350952D01*
X15422572Y-14350952D02*
X15413048Y-14331905D01*
X15413048Y-14331905D02*
X15413048Y-14255714D01*
X15413048Y-14255714D02*
X15422572Y-14236667D01*
X15422572Y-14236667D02*
X15441619Y-14227143D01*
X15441619Y-14227143D02*
X15479714Y-14227143D01*
X15479714Y-14227143D02*
X15498762Y-14236667D01*
X15498762Y-14236667D02*
X15508286Y-14255714D01*
X15508286Y-14255714D02*
X15508286Y-14274762D01*
X15508286Y-14274762D02*
X15413048Y-14293809D01*
X15584476Y-14350952D02*
X15603524Y-14360476D01*
X15603524Y-14360476D02*
X15641619Y-14360476D01*
X15641619Y-14360476D02*
X15660667Y-14350952D01*
X15660667Y-14350952D02*
X15670191Y-14331905D01*
X15670191Y-14331905D02*
X15670191Y-14322381D01*
X15670191Y-14322381D02*
X15660667Y-14303333D01*
X15660667Y-14303333D02*
X15641619Y-14293809D01*
X15641619Y-14293809D02*
X15613048Y-14293809D01*
X15613048Y-14293809D02*
X15594000Y-14284286D01*
X15594000Y-14284286D02*
X15584476Y-14265238D01*
X15584476Y-14265238D02*
X15584476Y-14255714D01*
X15584476Y-14255714D02*
X15594000Y-14236667D01*
X15594000Y-14236667D02*
X15613048Y-14227143D01*
X15613048Y-14227143D02*
X15641619Y-14227143D01*
X15641619Y-14227143D02*
X15660667Y-14236667D01*
X15736857Y-14436667D02*
X15746381Y-14427143D01*
X15746381Y-14427143D02*
X15765429Y-14398571D01*
X15765429Y-14398571D02*
X15774953Y-14379524D01*
X15774953Y-14379524D02*
X15784476Y-14350952D01*
X15784476Y-14350952D02*
X15794000Y-14303333D01*
X15794000Y-14303333D02*
X15794000Y-14265238D01*
X15794000Y-14265238D02*
X15784476Y-14217619D01*
X15784476Y-14217619D02*
X15774953Y-14189048D01*
X15774953Y-14189048D02*
X15765429Y-14170000D01*
X15765429Y-14170000D02*
X15746381Y-14141428D01*
X15746381Y-14141428D02*
X15736857Y-14131905D01*
D13*
X10859000Y-14496000D02*
X10859000Y-14606000D01*
X10804000Y-14551000D02*
X10914000Y-14551000D01*
D11*
X11266381Y-14624476D02*
X11152095Y-14624476D01*
X11209238Y-14624476D02*
X11209238Y-14424476D01*
X11209238Y-14424476D02*
X11190190Y-14453048D01*
X11190190Y-14453048D02*
X11171143Y-14472095D01*
X11171143Y-14472095D02*
X11152095Y-14481619D01*
X11352095Y-14605428D02*
X11361619Y-14614952D01*
X11361619Y-14614952D02*
X11352095Y-14624476D01*
X11352095Y-14624476D02*
X11342571Y-14614952D01*
X11342571Y-14614952D02*
X11352095Y-14605428D01*
X11352095Y-14605428D02*
X11352095Y-14624476D01*
X11552095Y-14624476D02*
X11437809Y-14624476D01*
X11494952Y-14624476D02*
X11494952Y-14424476D01*
X11494952Y-14424476D02*
X11475905Y-14453048D01*
X11475905Y-14453048D02*
X11456857Y-14472095D01*
X11456857Y-14472095D02*
X11437809Y-14481619D01*
X11675905Y-14424476D02*
X11694952Y-14424476D01*
X11694952Y-14424476D02*
X11714000Y-14434000D01*
X11714000Y-14434000D02*
X11723524Y-14443524D01*
X11723524Y-14443524D02*
X11733048Y-14462571D01*
X11733048Y-14462571D02*
X11742571Y-14500667D01*
X11742571Y-14500667D02*
X11742571Y-14548286D01*
X11742571Y-14548286D02*
X11733048Y-14586381D01*
X11733048Y-14586381D02*
X11723524Y-14605428D01*
X11723524Y-14605428D02*
X11714000Y-14614952D01*
X11714000Y-14614952D02*
X11694952Y-14624476D01*
X11694952Y-14624476D02*
X11675905Y-14624476D01*
X11675905Y-14624476D02*
X11656857Y-14614952D01*
X11656857Y-14614952D02*
X11647333Y-14605428D01*
X11647333Y-14605428D02*
X11637809Y-14586381D01*
X11637809Y-14586381D02*
X11628286Y-14548286D01*
X11628286Y-14548286D02*
X11628286Y-14500667D01*
X11628286Y-14500667D02*
X11637809Y-14462571D01*
X11637809Y-14462571D02*
X11647333Y-14443524D01*
X11647333Y-14443524D02*
X11656857Y-14434000D01*
X11656857Y-14434000D02*
X11675905Y-14424476D01*
X11866381Y-14424476D02*
X11885429Y-14424476D01*
X11885429Y-14424476D02*
X11904476Y-14434000D01*
X11904476Y-14434000D02*
X11914000Y-14443524D01*
X11914000Y-14443524D02*
X11923524Y-14462571D01*
X11923524Y-14462571D02*
X11933048Y-14500667D01*
X11933048Y-14500667D02*
X11933048Y-14548286D01*
X11933048Y-14548286D02*
X11923524Y-14586381D01*
X11923524Y-14586381D02*
X11914000Y-14605428D01*
X11914000Y-14605428D02*
X11904476Y-14614952D01*
X11904476Y-14614952D02*
X11885429Y-14624476D01*
X11885429Y-14624476D02*
X11866381Y-14624476D01*
X11866381Y-14624476D02*
X11847333Y-14614952D01*
X11847333Y-14614952D02*
X11837809Y-14605428D01*
X11837809Y-14605428D02*
X11828286Y-14586381D01*
X11828286Y-14586381D02*
X11818762Y-14548286D01*
X11818762Y-14548286D02*
X11818762Y-14500667D01*
X11818762Y-14500667D02*
X11828286Y-14462571D01*
X11828286Y-14462571D02*
X11837809Y-14443524D01*
X11837809Y-14443524D02*
X11847333Y-14434000D01*
X11847333Y-14434000D02*
X11866381Y-14424476D01*
X12018762Y-14624476D02*
X12018762Y-14491143D01*
X12018762Y-14510190D02*
X12028286Y-14500667D01*
X12028286Y-14500667D02*
X12047333Y-14491143D01*
X12047333Y-14491143D02*
X12075905Y-14491143D01*
X12075905Y-14491143D02*
X12094952Y-14500667D01*
X12094952Y-14500667D02*
X12104476Y-14519714D01*
X12104476Y-14519714D02*
X12104476Y-14624476D01*
X12104476Y-14519714D02*
X12114000Y-14500667D01*
X12114000Y-14500667D02*
X12133048Y-14491143D01*
X12133048Y-14491143D02*
X12161619Y-14491143D01*
X12161619Y-14491143D02*
X12180667Y-14500667D01*
X12180667Y-14500667D02*
X12190190Y-14519714D01*
X12190190Y-14519714D02*
X12190190Y-14624476D01*
X12285429Y-14624476D02*
X12285429Y-14491143D01*
X12285429Y-14510190D02*
X12294952Y-14500667D01*
X12294952Y-14500667D02*
X12314000Y-14491143D01*
X12314000Y-14491143D02*
X12342571Y-14491143D01*
X12342571Y-14491143D02*
X12361619Y-14500667D01*
X12361619Y-14500667D02*
X12371143Y-14519714D01*
X12371143Y-14519714D02*
X12371143Y-14624476D01*
X12371143Y-14519714D02*
X12380667Y-14500667D01*
X12380667Y-14500667D02*
X12399714Y-14491143D01*
X12399714Y-14491143D02*
X12428286Y-14491143D01*
X12428286Y-14491143D02*
X12447333Y-14500667D01*
X12447333Y-14500667D02*
X12456857Y-14519714D01*
X12456857Y-14519714D02*
X12456857Y-14624476D01*
X12814952Y-14414952D02*
X12643524Y-14672095D01*
X13039714Y-14424476D02*
X13058762Y-14424476D01*
X13058762Y-14424476D02*
X13077810Y-14434000D01*
X13077810Y-14434000D02*
X13087333Y-14443524D01*
X13087333Y-14443524D02*
X13096857Y-14462571D01*
X13096857Y-14462571D02*
X13106381Y-14500667D01*
X13106381Y-14500667D02*
X13106381Y-14548286D01*
X13106381Y-14548286D02*
X13096857Y-14586381D01*
X13096857Y-14586381D02*
X13087333Y-14605428D01*
X13087333Y-14605428D02*
X13077810Y-14614952D01*
X13077810Y-14614952D02*
X13058762Y-14624476D01*
X13058762Y-14624476D02*
X13039714Y-14624476D01*
X13039714Y-14624476D02*
X13020667Y-14614952D01*
X13020667Y-14614952D02*
X13011143Y-14605428D01*
X13011143Y-14605428D02*
X13001619Y-14586381D01*
X13001619Y-14586381D02*
X12992095Y-14548286D01*
X12992095Y-14548286D02*
X12992095Y-14500667D01*
X12992095Y-14500667D02*
X13001619Y-14462571D01*
X13001619Y-14462571D02*
X13011143Y-14443524D01*
X13011143Y-14443524D02*
X13020667Y-14434000D01*
X13020667Y-14434000D02*
X13039714Y-14424476D01*
X13192095Y-14605428D02*
X13201619Y-14614952D01*
X13201619Y-14614952D02*
X13192095Y-14624476D01*
X13192095Y-14624476D02*
X13182571Y-14614952D01*
X13182571Y-14614952D02*
X13192095Y-14605428D01*
X13192095Y-14605428D02*
X13192095Y-14624476D01*
X13325429Y-14424476D02*
X13344476Y-14424476D01*
X13344476Y-14424476D02*
X13363524Y-14434000D01*
X13363524Y-14434000D02*
X13373048Y-14443524D01*
X13373048Y-14443524D02*
X13382571Y-14462571D01*
X13382571Y-14462571D02*
X13392095Y-14500667D01*
X13392095Y-14500667D02*
X13392095Y-14548286D01*
X13392095Y-14548286D02*
X13382571Y-14586381D01*
X13382571Y-14586381D02*
X13373048Y-14605428D01*
X13373048Y-14605428D02*
X13363524Y-14614952D01*
X13363524Y-14614952D02*
X13344476Y-14624476D01*
X13344476Y-14624476D02*
X13325429Y-14624476D01*
X13325429Y-14624476D02*
X13306381Y-14614952D01*
X13306381Y-14614952D02*
X13296857Y-14605428D01*
X13296857Y-14605428D02*
X13287333Y-14586381D01*
X13287333Y-14586381D02*
X13277810Y-14548286D01*
X13277810Y-14548286D02*
X13277810Y-14500667D01*
X13277810Y-14500667D02*
X13287333Y-14462571D01*
X13287333Y-14462571D02*
X13296857Y-14443524D01*
X13296857Y-14443524D02*
X13306381Y-14434000D01*
X13306381Y-14434000D02*
X13325429Y-14424476D01*
X13563524Y-14491143D02*
X13563524Y-14624476D01*
X13515905Y-14414952D02*
X13468286Y-14557809D01*
X13468286Y-14557809D02*
X13592095Y-14557809D01*
X13649238Y-14424476D02*
X13773048Y-14424476D01*
X13773048Y-14424476D02*
X13706381Y-14500667D01*
X13706381Y-14500667D02*
X13734952Y-14500667D01*
X13734952Y-14500667D02*
X13754000Y-14510190D01*
X13754000Y-14510190D02*
X13763524Y-14519714D01*
X13763524Y-14519714D02*
X13773048Y-14538762D01*
X13773048Y-14538762D02*
X13773048Y-14586381D01*
X13773048Y-14586381D02*
X13763524Y-14605428D01*
X13763524Y-14605428D02*
X13754000Y-14614952D01*
X13754000Y-14614952D02*
X13734952Y-14624476D01*
X13734952Y-14624476D02*
X13677810Y-14624476D01*
X13677810Y-14624476D02*
X13658762Y-14614952D01*
X13658762Y-14614952D02*
X13649238Y-14605428D01*
X13839714Y-14424476D02*
X13963524Y-14424476D01*
X13963524Y-14424476D02*
X13896857Y-14500667D01*
X13896857Y-14500667D02*
X13925429Y-14500667D01*
X13925429Y-14500667D02*
X13944476Y-14510190D01*
X13944476Y-14510190D02*
X13954000Y-14519714D01*
X13954000Y-14519714D02*
X13963524Y-14538762D01*
X13963524Y-14538762D02*
X13963524Y-14586381D01*
X13963524Y-14586381D02*
X13954000Y-14605428D01*
X13954000Y-14605428D02*
X13944476Y-14614952D01*
X13944476Y-14614952D02*
X13925429Y-14624476D01*
X13925429Y-14624476D02*
X13868286Y-14624476D01*
X13868286Y-14624476D02*
X13849238Y-14614952D01*
X13849238Y-14614952D02*
X13839714Y-14605428D01*
X14039714Y-14424476D02*
X14039714Y-14462571D01*
X14115905Y-14424476D02*
X14115905Y-14462571D01*
X14378762Y-14700667D02*
X14369238Y-14691143D01*
X14369238Y-14691143D02*
X14350191Y-14662571D01*
X14350191Y-14662571D02*
X14340667Y-14643524D01*
X14340667Y-14643524D02*
X14331143Y-14614952D01*
X14331143Y-14614952D02*
X14321619Y-14567333D01*
X14321619Y-14567333D02*
X14321619Y-14529238D01*
X14321619Y-14529238D02*
X14331143Y-14481619D01*
X14331143Y-14481619D02*
X14340667Y-14453048D01*
X14340667Y-14453048D02*
X14350191Y-14434000D01*
X14350191Y-14434000D02*
X14369238Y-14405428D01*
X14369238Y-14405428D02*
X14378762Y-14395905D01*
X14445429Y-14443524D02*
X14454952Y-14434000D01*
X14454952Y-14434000D02*
X14474000Y-14424476D01*
X14474000Y-14424476D02*
X14521619Y-14424476D01*
X14521619Y-14424476D02*
X14540667Y-14434000D01*
X14540667Y-14434000D02*
X14550191Y-14443524D01*
X14550191Y-14443524D02*
X14559714Y-14462571D01*
X14559714Y-14462571D02*
X14559714Y-14481619D01*
X14559714Y-14481619D02*
X14550191Y-14510190D01*
X14550191Y-14510190D02*
X14435905Y-14624476D01*
X14435905Y-14624476D02*
X14559714Y-14624476D01*
X14765429Y-14624476D02*
X14765429Y-14424476D01*
X14851143Y-14624476D02*
X14851143Y-14519714D01*
X14851143Y-14519714D02*
X14841619Y-14500667D01*
X14841619Y-14500667D02*
X14822572Y-14491143D01*
X14822572Y-14491143D02*
X14794000Y-14491143D01*
X14794000Y-14491143D02*
X14774952Y-14500667D01*
X14774952Y-14500667D02*
X14765429Y-14510190D01*
X14974952Y-14624476D02*
X14955905Y-14614952D01*
X14955905Y-14614952D02*
X14946381Y-14605428D01*
X14946381Y-14605428D02*
X14936857Y-14586381D01*
X14936857Y-14586381D02*
X14936857Y-14529238D01*
X14936857Y-14529238D02*
X14946381Y-14510190D01*
X14946381Y-14510190D02*
X14955905Y-14500667D01*
X14955905Y-14500667D02*
X14974952Y-14491143D01*
X14974952Y-14491143D02*
X15003524Y-14491143D01*
X15003524Y-14491143D02*
X15022572Y-14500667D01*
X15022572Y-14500667D02*
X15032095Y-14510190D01*
X15032095Y-14510190D02*
X15041619Y-14529238D01*
X15041619Y-14529238D02*
X15041619Y-14586381D01*
X15041619Y-14586381D02*
X15032095Y-14605428D01*
X15032095Y-14605428D02*
X15022572Y-14614952D01*
X15022572Y-14614952D02*
X15003524Y-14624476D01*
X15003524Y-14624476D02*
X14974952Y-14624476D01*
X15155905Y-14624476D02*
X15136857Y-14614952D01*
X15136857Y-14614952D02*
X15127333Y-14595905D01*
X15127333Y-14595905D02*
X15127333Y-14424476D01*
X15308286Y-14614952D02*
X15289238Y-14624476D01*
X15289238Y-14624476D02*
X15251143Y-14624476D01*
X15251143Y-14624476D02*
X15232095Y-14614952D01*
X15232095Y-14614952D02*
X15222572Y-14595905D01*
X15222572Y-14595905D02*
X15222572Y-14519714D01*
X15222572Y-14519714D02*
X15232095Y-14500667D01*
X15232095Y-14500667D02*
X15251143Y-14491143D01*
X15251143Y-14491143D02*
X15289238Y-14491143D01*
X15289238Y-14491143D02*
X15308286Y-14500667D01*
X15308286Y-14500667D02*
X15317810Y-14519714D01*
X15317810Y-14519714D02*
X15317810Y-14538762D01*
X15317810Y-14538762D02*
X15222572Y-14557809D01*
X15394000Y-14614952D02*
X15413048Y-14624476D01*
X15413048Y-14624476D02*
X15451143Y-14624476D01*
X15451143Y-14624476D02*
X15470191Y-14614952D01*
X15470191Y-14614952D02*
X15479714Y-14595905D01*
X15479714Y-14595905D02*
X15479714Y-14586381D01*
X15479714Y-14586381D02*
X15470191Y-14567333D01*
X15470191Y-14567333D02*
X15451143Y-14557809D01*
X15451143Y-14557809D02*
X15422572Y-14557809D01*
X15422572Y-14557809D02*
X15403524Y-14548286D01*
X15403524Y-14548286D02*
X15394000Y-14529238D01*
X15394000Y-14529238D02*
X15394000Y-14519714D01*
X15394000Y-14519714D02*
X15403524Y-14500667D01*
X15403524Y-14500667D02*
X15422572Y-14491143D01*
X15422572Y-14491143D02*
X15451143Y-14491143D01*
X15451143Y-14491143D02*
X15470191Y-14500667D01*
X15546381Y-14700667D02*
X15555905Y-14691143D01*
X15555905Y-14691143D02*
X15574953Y-14662571D01*
X15574953Y-14662571D02*
X15584476Y-14643524D01*
X15584476Y-14643524D02*
X15594000Y-14614952D01*
X15594000Y-14614952D02*
X15603524Y-14567333D01*
X15603524Y-14567333D02*
X15603524Y-14529238D01*
X15603524Y-14529238D02*
X15594000Y-14481619D01*
X15594000Y-14481619D02*
X15584476Y-14453048D01*
X15584476Y-14453048D02*
X15574953Y-14434000D01*
X15574953Y-14434000D02*
X15555905Y-14405428D01*
X15555905Y-14405428D02*
X15546381Y-14395905D01*
M02*
