M48
; DRILL file {KiCad (7.0.0)} date Tue Feb 28 19:32:46 2023
; FORMAT={-:-/ absolute / inch / decimal}
; #@! TF.CreationDate,2023-02-28T19:32:46+01:00
; #@! TF.GenerationSoftware,Kicad,Pcbnew,(7.0.0)
; #@! TF.FileFunction,Plated,1,2,PTH
FMAT,2
INCH
; #@! TA.AperFunction,Plated,PTH,ViaDrill
T1C0.0157
; #@! TA.AperFunction,Plated,PTH,ComponentDrill
T2C0.0394
; #@! TA.AperFunction,Plated,PTH,ComponentDrill
T3C0.0433
%
G90
G05
T1
X4.5343Y-3.3602
T2
X4.4602Y-3.476
X4.4602Y-3.576
X4.4602Y-3.676
X4.4602Y-3.776
X4.4602Y-3.876
X4.4602Y-3.976
X4.4602Y-4.076
X4.4602Y-4.176
X4.4602Y-4.276
X4.4602Y-4.376
X8.8024Y-3.4744
X8.8024Y-3.5744
X8.8024Y-3.6744
X8.8024Y-3.7744
X8.8024Y-3.8744
X8.8024Y-3.9744
X8.8024Y-4.0744
X8.8024Y-4.1744
X8.8024Y-4.2744
X8.8024Y-4.3744
T3
X4.4421Y-3.1232
X4.4421Y-3.2232
T0
M30
