%TF.GenerationSoftware,KiCad,Pcbnew,7.0.5*%
%TF.CreationDate,2023-06-02T17:32:58+02:00*%
%TF.ProjectId,Solar Cell offgrid Power,536f6c61-7220-4436-956c-6c206f666667,rev?*%
%TF.SameCoordinates,Original*%
%TF.FileFunction,Copper,L1,Top*%
%TF.FilePolarity,Positive*%
%FSLAX46Y46*%
G04 Gerber Fmt 4.6, Leading zero omitted, Abs format (unit mm)*
G04 Created by KiCad (PCBNEW 7.0.5) date 2023-06-02 17:32:58*
%MOMM*%
%LPD*%
G01*
G04 APERTURE LIST*
G04 Aperture macros list*
%AMRoundRect*
0 Rectangle with rounded corners*
0 $1 Rounding radius*
0 $2 $3 $4 $5 $6 $7 $8 $9 X,Y pos of 4 corners*
0 Add a 4 corners polygon primitive as box body*
4,1,4,$2,$3,$4,$5,$6,$7,$8,$9,$2,$3,0*
0 Add four circle primitives for the rounded corners*
1,1,$1+$1,$2,$3*
1,1,$1+$1,$4,$5*
1,1,$1+$1,$6,$7*
1,1,$1+$1,$8,$9*
0 Add four rect primitives between the rounded corners*
20,1,$1+$1,$2,$3,$4,$5,0*
20,1,$1+$1,$4,$5,$6,$7,0*
20,1,$1+$1,$6,$7,$8,$9,0*
20,1,$1+$1,$8,$9,$2,$3,0*%
G04 Aperture macros list end*
%TA.AperFunction,SMDPad,CuDef*%
%ADD10R,3.000000X3.000000*%
%TD*%
%TA.AperFunction,SMDPad,CuDef*%
%ADD11RoundRect,0.150000X-0.150000X0.512500X-0.150000X-0.512500X0.150000X-0.512500X0.150000X0.512500X0*%
%TD*%
%TA.AperFunction,ComponentPad*%
%ADD12R,1.700000X1.700000*%
%TD*%
%TA.AperFunction,ComponentPad*%
%ADD13O,1.700000X1.700000*%
%TD*%
%TA.AperFunction,SMDPad,CuDef*%
%ADD14R,1.500000X1.500000*%
%TD*%
%TA.AperFunction,SMDPad,CuDef*%
%ADD15RoundRect,0.250000X-0.250000X-0.750000X0.250000X-0.750000X0.250000X0.750000X-0.250000X0.750000X0*%
%TD*%
%TA.AperFunction,ComponentPad*%
%ADD16O,2.070000X4.140000*%
%TD*%
%TA.AperFunction,SMDPad,CuDef*%
%ADD17RoundRect,0.225000X-0.225000X-0.375000X0.225000X-0.375000X0.225000X0.375000X-0.225000X0.375000X0*%
%TD*%
%TA.AperFunction,ComponentPad*%
%ADD18R,2.200000X2.200000*%
%TD*%
%TA.AperFunction,ComponentPad*%
%ADD19C,2.200000*%
%TD*%
%TA.AperFunction,SMDPad,CuDef*%
%ADD20RoundRect,0.250000X-0.312500X-1.075000X0.312500X-1.075000X0.312500X1.075000X-0.312500X1.075000X0*%
%TD*%
%TA.AperFunction,ViaPad*%
%ADD21C,0.800000*%
%TD*%
%TA.AperFunction,Conductor*%
%ADD22C,0.400000*%
%TD*%
%TA.AperFunction,Conductor*%
%ADD23C,0.150000*%
%TD*%
%TA.AperFunction,Conductor*%
%ADD24C,1.000000*%
%TD*%
%TA.AperFunction,Conductor*%
%ADD25C,0.200000*%
%TD*%
G04 APERTURE END LIST*
D10*
%TO.P,BAT_POS1,1,1*%
%TO.N,BAT+*%
X131220000Y-77240000D03*
%TD*%
D11*
%TO.P,Q1,1,B*%
%TO.N,Net-(Q1-B)*%
X122800000Y-87255000D03*
%TO.P,Q1,2,E*%
%TO.N,BAT+*%
X120900000Y-87255000D03*
%TO.P,Q1,3,C*%
%TO.N,PWR*%
X121850000Y-89530000D03*
%TD*%
D10*
%TO.P,TPBAT_NEG1,1,1*%
%TO.N,GND*%
X213590000Y-76290000D03*
%TD*%
D12*
%TO.P,J2,1,Pin_1*%
%TO.N,Conn_track_1*%
X113290000Y-111150000D03*
D13*
%TO.P,J2,2,Pin_2*%
%TO.N,Conn_track_2*%
X113290000Y-108610000D03*
%TO.P,J2,3,Pin_3*%
%TO.N,Conn_track_3*%
X113290000Y-106070000D03*
%TO.P,J2,4,Pin_4*%
%TO.N,Conn_track_4*%
X113290000Y-103530000D03*
%TO.P,J2,5,Pin_5*%
%TO.N,PWR*%
X113290000Y-100990000D03*
%TO.P,J2,6,Pin_6*%
%TO.N,GND*%
X113290000Y-98450000D03*
%TO.P,J2,7,Pin_7*%
%TO.N,Conn_track_7*%
X113290000Y-95910000D03*
%TO.P,J2,8,Pin_8*%
%TO.N,Conn_track_8*%
X113290000Y-93370000D03*
%TO.P,J2,9,Pin_9*%
%TO.N,Conn_track_9*%
X113290000Y-90830000D03*
%TO.P,J2,10,Pin_10*%
%TO.N,Conn_track_10*%
X113290000Y-88290000D03*
%TD*%
D14*
%TO.P,BK4,1,1*%
%TO.N,BAT+*%
X160640000Y-113810000D03*
%TO.P,BK4,2,2*%
%TO.N,Conn_track_1*%
X160640000Y-111950000D03*
%TD*%
%TO.P,BK8,1,1*%
%TO.N,BAT+*%
X172010000Y-113795000D03*
%TO.P,BK8,2,2*%
%TO.N,Conn_track_7*%
X172010000Y-111935000D03*
%TD*%
D15*
%TO.P,J4,1,Pin_1*%
%TO.N,Net-(J4-Pin_1)*%
X119900000Y-125080000D03*
%TO.P,J4,2,Pin_2*%
%TO.N,PWR*%
X122390000Y-125070000D03*
%TO.P,J4,3,Pin_3*%
%TO.N,PWR_HOME*%
X124910000Y-125080000D03*
%TO.P,J4,4,Pin_4*%
X124830000Y-119450000D03*
%TO.P,J4,5,Pin_5*%
%TO.N,PWR*%
X122410000Y-119430000D03*
%TO.P,J4,6,Pin_6*%
%TO.N,Net-(J4-Pin_1)*%
X119900000Y-119440000D03*
%TD*%
D16*
%TO.P,BT1,+*%
%TO.N,BAT+*%
X135825000Y-77950000D03*
%TO.P,BT1,-*%
%TO.N,GND*%
X208725000Y-77950000D03*
%TD*%
D14*
%TO.P,BK7,1,1*%
%TO.N,BAT+*%
X168860000Y-113790000D03*
%TO.P,BK7,2,2*%
%TO.N,Conn_track_4*%
X168860000Y-111930000D03*
%TD*%
%TO.P,BK6,1,1*%
%TO.N,BAT+*%
X166020000Y-113820000D03*
%TO.P,BK6,2,2*%
%TO.N,Conn_track_3*%
X166020000Y-111960000D03*
%TD*%
D10*
%TO.P,TPSC_NEG1,1,1*%
%TO.N,GND*%
X231840000Y-130130000D03*
%TD*%
D14*
%TO.P,BK3,1,1*%
%TO.N,BAT+*%
X181140000Y-113805000D03*
%TO.P,BK3,2,2*%
%TO.N,Conn_track_10*%
X181140000Y-111945000D03*
%TD*%
%TO.P,BK2,1,1*%
%TO.N,BAT+*%
X178100000Y-113745000D03*
%TO.P,BK2,2,2*%
%TO.N,Conn_track_9*%
X178100000Y-111885000D03*
%TD*%
D12*
%TO.P,J1,1,Pin_1*%
%TO.N,Conn_track_1*%
X223580000Y-111110000D03*
D13*
%TO.P,J1,2,Pin_2*%
%TO.N,Conn_track_2*%
X223580000Y-108570000D03*
%TO.P,J1,3,Pin_3*%
%TO.N,Conn_track_3*%
X223580000Y-106030000D03*
%TO.P,J1,4,Pin_4*%
%TO.N,Conn_track_4*%
X223580000Y-103490000D03*
%TO.P,J1,5,Pin_5*%
%TO.N,PWR*%
X223580000Y-100950000D03*
%TO.P,J1,6,Pin_6*%
%TO.N,GND*%
X223580000Y-98410000D03*
%TO.P,J1,7,Pin_7*%
%TO.N,Conn_track_7*%
X223580000Y-95870000D03*
%TO.P,J1,8,Pin_8*%
%TO.N,Conn_track_8*%
X223580000Y-93330000D03*
%TO.P,J1,9,Pin_9*%
%TO.N,Conn_track_9*%
X223580000Y-90790000D03*
%TO.P,J1,10,Pin_10*%
%TO.N,Conn_track_10*%
X223580000Y-88250000D03*
%TD*%
D17*
%TO.P,D1,1,K*%
%TO.N,BAT+*%
X126420000Y-89630000D03*
%TO.P,D1,2,A*%
%TO.N,Net-(D1-A)*%
X129720000Y-89630000D03*
%TD*%
D18*
%TO.P,J3,1,Pin_1*%
%TO.N,GND*%
X112830000Y-79330000D03*
D19*
%TO.P,J3,2,Pin_2*%
%TO.N,PWR_HOME*%
X112830000Y-81870000D03*
%TD*%
D10*
%TO.P,SC_POS1,1,1*%
%TO.N,Net-(D1-A)*%
X231710000Y-69830000D03*
%TD*%
D14*
%TO.P,BK1,1,1*%
%TO.N,BAT+*%
X174990000Y-113765000D03*
%TO.P,BK1,2,2*%
%TO.N,Conn_track_8*%
X174990000Y-111905000D03*
%TD*%
%TO.P,BK5,1,1*%
%TO.N,BAT+*%
X163340000Y-113810000D03*
%TO.P,BK5,2,2*%
%TO.N,Conn_track_2*%
X163340000Y-111950000D03*
%TD*%
D20*
%TO.P,R1,1*%
%TO.N,Net-(D1-A)*%
X126537500Y-93360000D03*
%TO.P,R1,2*%
%TO.N,Net-(Q1-B)*%
X129462500Y-93360000D03*
%TD*%
D21*
%TO.N,BAT+*%
X178810000Y-85880000D03*
X125090000Y-85385000D03*
%TO.N,Conn_track_8*%
X175230000Y-92150000D03*
%TO.N,GND*%
X115170000Y-85350000D03*
%TO.N,Conn_track_9*%
X177070000Y-90770000D03*
%TO.N,Conn_track_10*%
X178560000Y-88190000D03*
%TO.N,Conn_track_1*%
X161700000Y-109150000D03*
%TO.N,Conn_track_2*%
X163290000Y-107620000D03*
%TO.N,Conn_track_3*%
X166090000Y-105980000D03*
%TO.N,Conn_track_4*%
X168860000Y-103530000D03*
%TO.N,Conn_track_7*%
X172030000Y-93670000D03*
%TD*%
D22*
%TO.N,BAT+*%
X126165000Y-85385000D02*
X131020000Y-80530000D01*
X125090000Y-88920000D02*
X125800000Y-89630000D01*
D23*
X181135000Y-113810000D02*
X181140000Y-113805000D01*
X184420000Y-91490000D02*
X178810000Y-85880000D01*
D22*
X131020000Y-80530000D02*
X131020000Y-77120000D01*
D23*
X160640000Y-113810000D02*
X181135000Y-113810000D01*
D22*
X125800000Y-89630000D02*
X126420000Y-89630000D01*
X125090000Y-85385000D02*
X126165000Y-85385000D01*
D24*
X136450000Y-77300000D02*
X131200000Y-77300000D01*
D22*
X125090000Y-85385000D02*
X125090000Y-88920000D01*
D23*
X184420000Y-111820000D02*
X184420000Y-91490000D01*
D22*
X125090000Y-85385000D02*
X122045000Y-85385000D01*
D24*
X131200000Y-77300000D02*
X131020000Y-77120000D01*
D23*
X181140000Y-113805000D02*
X182435000Y-113805000D01*
X182435000Y-113805000D02*
X184420000Y-111820000D01*
D22*
X122045000Y-85385000D02*
X120900000Y-86530000D01*
X120900000Y-86530000D02*
X120900000Y-87255000D01*
D25*
X178830000Y-85880000D02*
X178810000Y-85880000D01*
X178810000Y-85860000D02*
X178770000Y-85820000D01*
X178810000Y-85880000D02*
X178810000Y-85860000D01*
%TO.N,Net-(D1-A)*%
X129720000Y-90360000D02*
X128930000Y-91150000D01*
D22*
X165400000Y-89630000D02*
X186220000Y-68810000D01*
D25*
X127170000Y-91150000D02*
X126537500Y-91782500D01*
X129720000Y-89630000D02*
X129720000Y-90360000D01*
D22*
X186220000Y-68810000D02*
X230690000Y-68810000D01*
X230690000Y-68810000D02*
X231710000Y-69830000D01*
X129720000Y-89630000D02*
X165400000Y-89630000D01*
D25*
X126537500Y-91782500D02*
X126537500Y-93360000D01*
X128930000Y-91150000D02*
X127170000Y-91150000D01*
D23*
%TO.N,Conn_track_8*%
X174990000Y-111905000D02*
X174990000Y-92390000D01*
X174990000Y-92390000D02*
X175230000Y-92150000D01*
D24*
%TO.N,PWR*%
X122390000Y-108140000D02*
X115240000Y-100990000D01*
X122390000Y-121660000D02*
X122390000Y-108140000D01*
X129182500Y-109772500D02*
X129182500Y-128080000D01*
X129182500Y-128080000D02*
X209580000Y-128080000D01*
X220140000Y-100950000D02*
X223580000Y-100950000D01*
X115240000Y-100990000D02*
X113290000Y-100990000D01*
X129172500Y-128070000D02*
X123890000Y-128070000D01*
X122390000Y-126570000D02*
X122390000Y-125070000D01*
X123890000Y-128070000D02*
X122390000Y-126570000D01*
X129182500Y-128080000D02*
X129172500Y-128070000D01*
X122390000Y-119450000D02*
X122410000Y-119430000D01*
X122390000Y-121660000D02*
X122390000Y-119450000D01*
X121820000Y-102410000D02*
X129182500Y-109772500D01*
X209580000Y-128080000D02*
X216480000Y-121180000D01*
X216480000Y-121180000D02*
X216480000Y-104610000D01*
X121822500Y-89977500D02*
X121820000Y-89980000D01*
X121820000Y-89980000D02*
X121820000Y-102410000D01*
X216480000Y-104610000D02*
X220140000Y-100950000D01*
X122390000Y-125070000D02*
X122390000Y-121660000D01*
%TO.N,GND*%
X231270000Y-130700000D02*
X225030000Y-130700000D01*
D22*
X110720000Y-98460000D02*
X110730000Y-98450000D01*
D24*
X231770000Y-98410000D02*
X223580000Y-98410000D01*
X110730000Y-98450000D02*
X113290000Y-98450000D01*
X110720000Y-102200000D02*
X110720000Y-98460000D01*
X231840000Y-123990000D02*
X231840000Y-101300000D01*
X110720000Y-125450000D02*
X110720000Y-102200000D01*
X231840000Y-101300000D02*
X231840000Y-98480000D01*
X221440000Y-76290000D02*
X213590000Y-76290000D01*
D22*
X231840000Y-130130000D02*
X231270000Y-130700000D01*
D24*
X231840000Y-130130000D02*
X231840000Y-123990000D01*
X231840000Y-86690000D02*
X221440000Y-76290000D01*
X209350000Y-77300000D02*
X212580000Y-77300000D01*
D22*
X115170000Y-85350000D02*
X115140000Y-85290000D01*
D24*
X115970000Y-130700000D02*
X110720000Y-125450000D01*
X110720000Y-102200000D02*
X110720000Y-87070000D01*
D22*
X231840000Y-98480000D02*
X231770000Y-98410000D01*
D24*
X225030000Y-130700000D02*
X225130000Y-130700000D01*
X225030000Y-130700000D02*
X115970000Y-130700000D01*
X112440000Y-85350000D02*
X115170000Y-85350000D01*
X110720000Y-87070000D02*
X112440000Y-85350000D01*
X225130000Y-130700000D02*
X231840000Y-123990000D01*
X231840000Y-101300000D02*
X231840000Y-86690000D01*
X212580000Y-77300000D02*
X213590000Y-76290000D01*
D23*
%TO.N,Conn_track_9*%
X178100000Y-91800000D02*
X177070000Y-90770000D01*
X178100000Y-111885000D02*
X178100000Y-91800000D01*
%TO.N,Conn_track_10*%
X181140000Y-90770000D02*
X178560000Y-88190000D01*
X181140000Y-111945000D02*
X181140000Y-90770000D01*
%TO.N,Conn_track_1*%
X160640000Y-110150000D02*
X161640000Y-109150000D01*
X161640000Y-109150000D02*
X161700000Y-109150000D01*
X160640000Y-111950000D02*
X160640000Y-110150000D01*
X161700000Y-109150000D02*
X161700000Y-109090000D01*
X161700000Y-109090000D02*
X161660000Y-109130000D01*
%TO.N,Conn_track_2*%
X163340000Y-111950000D02*
X163340000Y-107650000D01*
X163340000Y-107650000D02*
X163420000Y-107570000D01*
%TO.N,Conn_track_3*%
X166020000Y-111960000D02*
X166020000Y-106040000D01*
X166020000Y-106040000D02*
X166010000Y-106030000D01*
D24*
%TO.N,PWR_HOME*%
X113130000Y-82170000D02*
X115610000Y-82170000D01*
X118230000Y-101470000D02*
X124910000Y-108150000D01*
X115610000Y-82170000D02*
X118230000Y-84790000D01*
D22*
X113130000Y-82170000D02*
X112830000Y-81870000D01*
D24*
X124910000Y-108150000D02*
X124910000Y-125080000D01*
X118230000Y-84790000D02*
X118230000Y-101470000D01*
D25*
%TO.N,Net-(Q1-B)*%
X128940000Y-95300000D02*
X125340000Y-95300000D01*
X123830000Y-88285000D02*
X122800000Y-87255000D01*
X129462500Y-94777500D02*
X128940000Y-95300000D01*
X125340000Y-95300000D02*
X123830000Y-93790000D01*
X129462500Y-93360000D02*
X129462500Y-94777500D01*
X123830000Y-93790000D02*
X123830000Y-88285000D01*
D24*
%TO.N,Net-(J4-Pin_1)*%
X119900000Y-125080000D02*
X119900000Y-119440000D01*
D23*
%TO.N,Conn_track_4*%
X168860000Y-111930000D02*
X168860000Y-103580000D01*
X168910000Y-103530000D02*
X168930000Y-103510000D01*
X168860000Y-103580000D02*
X168860000Y-103530000D01*
X168860000Y-103530000D02*
X168910000Y-103530000D01*
X168860000Y-103580000D02*
X168860000Y-103580000D01*
%TO.N,Conn_track_7*%
X172010000Y-111935000D02*
X172010000Y-93690000D01*
X172010000Y-93690000D02*
X172030000Y-93670000D01*
%TD*%
%TA.AperFunction,Conductor*%
%TO.N,Net-(D1-A)*%
G36*
X232718109Y-65690799D02*
G01*
X232771977Y-65696104D01*
X232892941Y-65708018D01*
X232916769Y-65712757D01*
X233081001Y-65762576D01*
X233103453Y-65771877D01*
X233254798Y-65852772D01*
X233275010Y-65866277D01*
X233407666Y-65975145D01*
X233424854Y-65992333D01*
X233533722Y-66124989D01*
X233547227Y-66145201D01*
X233628121Y-66296543D01*
X233637424Y-66319001D01*
X233687240Y-66483223D01*
X233691982Y-66507064D01*
X233709200Y-66681891D01*
X233709499Y-66687971D01*
X233709499Y-74190696D01*
X233709199Y-74196790D01*
X233691904Y-74372012D01*
X233687141Y-74395904D01*
X233637111Y-74560449D01*
X233627769Y-74582948D01*
X233546537Y-74734530D01*
X233532977Y-74754767D01*
X233423671Y-74887550D01*
X233406416Y-74904747D01*
X233273261Y-75013595D01*
X233252976Y-75027086D01*
X233101113Y-75107799D01*
X233078582Y-75117064D01*
X232913862Y-75166529D01*
X232889956Y-75171209D01*
X232792624Y-75180480D01*
X232709595Y-75188388D01*
X232703523Y-75188666D01*
X226682321Y-75168003D01*
X225349597Y-75163429D01*
X225343556Y-75163112D01*
X225246570Y-75153245D01*
X225164091Y-75144854D01*
X225140316Y-75140051D01*
X224976590Y-75089886D01*
X224954205Y-75080546D01*
X224803381Y-74999471D01*
X224783242Y-74985952D01*
X224651085Y-74877066D01*
X224633964Y-74859886D01*
X224525532Y-74727357D01*
X224512085Y-74707177D01*
X224431521Y-74556061D01*
X224422266Y-74533662D01*
X224372660Y-74369758D01*
X224367939Y-74345967D01*
X224350297Y-74166447D01*
X224350000Y-74160379D01*
X224350000Y-66693048D01*
X224350299Y-66686967D01*
X224354706Y-66642213D01*
X224368018Y-66507056D01*
X224372757Y-66483232D01*
X224422577Y-66318994D01*
X224431875Y-66296549D01*
X224512775Y-66145195D01*
X224526272Y-66124995D01*
X224635149Y-65992328D01*
X224652328Y-65975149D01*
X224784995Y-65866272D01*
X224805195Y-65852775D01*
X224956549Y-65771875D01*
X224978994Y-65762577D01*
X225143232Y-65712757D01*
X225167056Y-65708018D01*
X225282677Y-65696630D01*
X225341892Y-65690799D01*
X225347972Y-65690500D01*
X232712028Y-65690500D01*
X232718109Y-65690799D01*
G37*
%TD.AperFunction*%
%TD*%
%TA.AperFunction,Conductor*%
%TO.N,GND*%
G36*
X218031897Y-72081655D02*
G01*
X218092932Y-72087666D01*
X218211806Y-72099374D01*
X218235634Y-72104113D01*
X218399866Y-72153932D01*
X218422318Y-72163233D01*
X218573663Y-72244128D01*
X218593875Y-72257633D01*
X218726531Y-72366501D01*
X218743719Y-72383689D01*
X218852587Y-72516345D01*
X218866092Y-72536557D01*
X218946986Y-72687899D01*
X218956289Y-72710357D01*
X219006105Y-72874580D01*
X219010847Y-72898421D01*
X219028566Y-73078323D01*
X219028865Y-73084404D01*
X219028865Y-80643845D01*
X219028568Y-80649905D01*
X219010973Y-80829180D01*
X219006264Y-80852940D01*
X218956794Y-81016635D01*
X218947555Y-81039027D01*
X218867205Y-81189978D01*
X218853790Y-81210146D01*
X218745625Y-81342599D01*
X218728545Y-81359774D01*
X218596694Y-81468672D01*
X218576599Y-81482200D01*
X218426092Y-81563385D01*
X218403752Y-81572747D01*
X218240337Y-81623123D01*
X218216603Y-81627964D01*
X218037426Y-81646551D01*
X218031368Y-81646881D01*
X209198082Y-81695820D01*
X209192015Y-81695556D01*
X209012444Y-81678917D01*
X208988636Y-81674330D01*
X208824499Y-81625659D01*
X208802048Y-81616530D01*
X208650521Y-81536843D01*
X208630267Y-81523512D01*
X208497156Y-81415868D01*
X208479881Y-81398849D01*
X208370260Y-81267350D01*
X208356629Y-81247295D01*
X208331244Y-81200722D01*
X208274698Y-81096977D01*
X208265234Y-81074661D01*
X208214123Y-80911267D01*
X208209182Y-80887530D01*
X208204202Y-80841292D01*
X208189871Y-80708233D01*
X208189518Y-80702171D01*
X208118337Y-73093774D01*
X208118582Y-73087654D01*
X208119147Y-73081356D01*
X208134818Y-72906533D01*
X208139392Y-72882517D01*
X208141734Y-72874580D01*
X208188246Y-72716942D01*
X208197439Y-72694300D01*
X208277841Y-72541523D01*
X208291298Y-72521125D01*
X208400122Y-72387092D01*
X208417316Y-72369737D01*
X208550318Y-72259671D01*
X208570593Y-72246020D01*
X208722613Y-72164191D01*
X208745166Y-72154788D01*
X208910282Y-72104385D01*
X208934241Y-72099589D01*
X209115216Y-72081657D01*
X209121333Y-72081356D01*
X218025816Y-72081356D01*
X218031897Y-72081655D01*
G37*
%TD.AperFunction*%
%TD*%
%TA.AperFunction,Conductor*%
%TO.N,GND*%
G36*
X230442973Y-124122995D02*
G01*
X232714482Y-124140039D01*
X232720526Y-124140381D01*
X232816217Y-124150486D01*
X232899438Y-124159274D01*
X232923128Y-124164148D01*
X232976593Y-124180723D01*
X233086266Y-124214723D01*
X233108565Y-124224107D01*
X233258772Y-124305394D01*
X233278823Y-124318928D01*
X233410390Y-124427834D01*
X233427433Y-124445005D01*
X233535350Y-124577386D01*
X233548734Y-124597539D01*
X233628890Y-124748350D01*
X233638106Y-124770718D01*
X233687454Y-124934223D01*
X233692152Y-124957956D01*
X233709203Y-125131928D01*
X233709499Y-125137980D01*
X233709499Y-132782027D01*
X233709200Y-132788107D01*
X233691982Y-132962934D01*
X233687239Y-132986776D01*
X233637423Y-133150995D01*
X233628121Y-133173452D01*
X233547224Y-133324801D01*
X233533719Y-133345013D01*
X233424854Y-133477666D01*
X233407666Y-133494854D01*
X233275010Y-133603722D01*
X233254798Y-133617227D01*
X233103456Y-133698121D01*
X233080998Y-133707424D01*
X232916775Y-133757240D01*
X232892935Y-133761982D01*
X232718109Y-133779201D01*
X232712028Y-133779500D01*
X227507271Y-133779500D01*
X227501190Y-133779201D01*
X227326364Y-133761982D01*
X227302523Y-133757240D01*
X227138300Y-133707424D01*
X227115842Y-133698121D01*
X226964500Y-133617227D01*
X226944288Y-133603722D01*
X226811632Y-133494854D01*
X226794444Y-133477666D01*
X226786252Y-133467684D01*
X226685575Y-133345008D01*
X226672071Y-133324798D01*
X226591177Y-133173456D01*
X226581874Y-133150998D01*
X226532056Y-132986769D01*
X226527317Y-132962941D01*
X226515609Y-132844067D01*
X226509598Y-132783032D01*
X226509299Y-132776951D01*
X226509299Y-125104070D01*
X226509601Y-125097961D01*
X226527488Y-124917214D01*
X226532275Y-124893264D01*
X226582562Y-124728328D01*
X226591946Y-124705791D01*
X226673587Y-124553909D01*
X226687206Y-124533650D01*
X226797040Y-124400709D01*
X226814363Y-124383516D01*
X226948123Y-124274683D01*
X226968479Y-124261220D01*
X227120972Y-124180720D01*
X227143574Y-124171505D01*
X227308898Y-124122453D01*
X227332869Y-124117849D01*
X227513775Y-124101316D01*
X227519854Y-124101063D01*
X230442973Y-124122995D01*
G37*
%TD.AperFunction*%
%TD*%
%TA.AperFunction,Conductor*%
%TO.N,BAT+*%
G36*
X126877186Y-71318897D02*
G01*
X135878481Y-71389440D01*
X136395527Y-71393493D01*
X136401606Y-71393839D01*
X136581407Y-71412975D01*
X136605212Y-71417905D01*
X136769069Y-71469027D01*
X136791455Y-71478508D01*
X136942184Y-71560618D01*
X136962290Y-71574285D01*
X137094100Y-71684230D01*
X137111154Y-71701559D01*
X137218978Y-71835111D01*
X137232322Y-71855434D01*
X137312011Y-72007454D01*
X137321133Y-72029990D01*
X137349231Y-72125390D01*
X137369627Y-72194637D01*
X137374177Y-72218520D01*
X137390436Y-72398605D01*
X137390686Y-72404689D01*
X137317000Y-81443333D01*
X137316654Y-81449392D01*
X137297586Y-81628581D01*
X137292680Y-81652311D01*
X137241843Y-81815646D01*
X137232416Y-81837968D01*
X137150781Y-81988305D01*
X137137192Y-82008367D01*
X137027885Y-82139949D01*
X137010654Y-82156987D01*
X136877844Y-82264798D01*
X136857630Y-82278158D01*
X136706381Y-82358088D01*
X136683953Y-82367262D01*
X136520050Y-82416250D01*
X136496267Y-82420887D01*
X136316875Y-82437927D01*
X136310825Y-82438204D01*
X128123230Y-82412356D01*
X125638740Y-82404512D01*
X125632684Y-82404196D01*
X125597952Y-82400671D01*
X125453194Y-82385981D01*
X125429415Y-82381183D01*
X125265647Y-82331046D01*
X125243256Y-82321709D01*
X125092387Y-82240646D01*
X125072251Y-82227134D01*
X124940050Y-82118246D01*
X124922924Y-82101066D01*
X124814457Y-81968526D01*
X124801003Y-81948339D01*
X124720419Y-81797217D01*
X124711153Y-81774797D01*
X124674076Y-81652311D01*
X124661532Y-81610870D01*
X124656811Y-81587084D01*
X124639163Y-81407537D01*
X124638865Y-81401469D01*
X124638865Y-72312287D01*
X124639167Y-72306176D01*
X124650207Y-72194637D01*
X124657062Y-72125382D01*
X124661851Y-72101434D01*
X124712158Y-71936470D01*
X124721550Y-71913919D01*
X124803221Y-71762018D01*
X124816849Y-71741752D01*
X124926720Y-71608806D01*
X124944053Y-71591609D01*
X125077855Y-71482784D01*
X125098227Y-71469317D01*
X125205015Y-71412975D01*
X125250765Y-71388836D01*
X125273379Y-71379624D01*
X125438743Y-71330610D01*
X125462717Y-71326011D01*
X125545780Y-71318445D01*
X125643656Y-71309532D01*
X125649767Y-71309278D01*
X126877186Y-71318897D01*
G37*
%TD.AperFunction*%
%TD*%
M02*
