%TF.GenerationSoftware,KiCad,Pcbnew,7.0.5*%
%TF.CreationDate,2023-06-02T17:32:58+02:00*%
%TF.ProjectId,Solar Cell offgrid Power,536f6c61-7220-4436-956c-6c206f666667,rev?*%
%TF.SameCoordinates,Original*%
%TF.FileFunction,Copper,L2,Bot*%
%TF.FilePolarity,Positive*%
%FSLAX46Y46*%
G04 Gerber Fmt 4.6, Leading zero omitted, Abs format (unit mm)*
G04 Created by KiCad (PCBNEW 7.0.5) date 2023-06-02 17:32:58*
%MOMM*%
%LPD*%
G01*
G04 APERTURE LIST*
%TA.AperFunction,ComponentPad*%
%ADD10R,1.700000X1.700000*%
%TD*%
%TA.AperFunction,ComponentPad*%
%ADD11O,1.700000X1.700000*%
%TD*%
%TA.AperFunction,ComponentPad*%
%ADD12O,2.070000X4.140000*%
%TD*%
%TA.AperFunction,ComponentPad*%
%ADD13R,2.200000X2.200000*%
%TD*%
%TA.AperFunction,ComponentPad*%
%ADD14C,2.200000*%
%TD*%
%TA.AperFunction,ViaPad*%
%ADD15C,0.800000*%
%TD*%
%TA.AperFunction,Conductor*%
%ADD16C,0.200000*%
%TD*%
%TA.AperFunction,Conductor*%
%ADD17C,1.000000*%
%TD*%
G04 APERTURE END LIST*
D10*
%TO.P,J2,1,Pin_1*%
%TO.N,Conn_track_1*%
X113290000Y-111150000D03*
D11*
%TO.P,J2,2,Pin_2*%
%TO.N,Conn_track_2*%
X113290000Y-108610000D03*
%TO.P,J2,3,Pin_3*%
%TO.N,Conn_track_3*%
X113290000Y-106070000D03*
%TO.P,J2,4,Pin_4*%
%TO.N,Conn_track_4*%
X113290000Y-103530000D03*
%TO.P,J2,5,Pin_5*%
%TO.N,PWR*%
X113290000Y-100990000D03*
%TO.P,J2,6,Pin_6*%
%TO.N,GND*%
X113290000Y-98450000D03*
%TO.P,J2,7,Pin_7*%
%TO.N,Conn_track_7*%
X113290000Y-95910000D03*
%TO.P,J2,8,Pin_8*%
%TO.N,Conn_track_8*%
X113290000Y-93370000D03*
%TO.P,J2,9,Pin_9*%
%TO.N,Conn_track_9*%
X113290000Y-90830000D03*
%TO.P,J2,10,Pin_10*%
%TO.N,Conn_track_10*%
X113290000Y-88290000D03*
%TD*%
D12*
%TO.P,BT1,+*%
%TO.N,BAT+*%
X135825000Y-77950000D03*
%TO.P,BT1,-*%
%TO.N,GND*%
X208725000Y-77950000D03*
%TD*%
D10*
%TO.P,J1,1,Pin_1*%
%TO.N,Conn_track_1*%
X223580000Y-111110000D03*
D11*
%TO.P,J1,2,Pin_2*%
%TO.N,Conn_track_2*%
X223580000Y-108570000D03*
%TO.P,J1,3,Pin_3*%
%TO.N,Conn_track_3*%
X223580000Y-106030000D03*
%TO.P,J1,4,Pin_4*%
%TO.N,Conn_track_4*%
X223580000Y-103490000D03*
%TO.P,J1,5,Pin_5*%
%TO.N,PWR*%
X223580000Y-100950000D03*
%TO.P,J1,6,Pin_6*%
%TO.N,GND*%
X223580000Y-98410000D03*
%TO.P,J1,7,Pin_7*%
%TO.N,Conn_track_7*%
X223580000Y-95870000D03*
%TO.P,J1,8,Pin_8*%
%TO.N,Conn_track_8*%
X223580000Y-93330000D03*
%TO.P,J1,9,Pin_9*%
%TO.N,Conn_track_9*%
X223580000Y-90790000D03*
%TO.P,J1,10,Pin_10*%
%TO.N,Conn_track_10*%
X223580000Y-88250000D03*
%TD*%
D13*
%TO.P,J3,1,Pin_1*%
%TO.N,GND*%
X112830000Y-79330000D03*
D14*
%TO.P,J3,2,Pin_2*%
%TO.N,PWR_HOME*%
X112830000Y-81870000D03*
%TD*%
D15*
%TO.N,BAT+*%
X178810000Y-85880000D03*
X125090000Y-85385000D03*
%TO.N,Conn_track_8*%
X175230000Y-92150000D03*
%TO.N,GND*%
X115170000Y-85350000D03*
%TO.N,Conn_track_9*%
X177070000Y-90770000D03*
%TO.N,Conn_track_10*%
X178560000Y-88190000D03*
%TO.N,Conn_track_1*%
X161700000Y-109150000D03*
%TO.N,Conn_track_2*%
X163290000Y-107620000D03*
%TO.N,Conn_track_3*%
X166090000Y-105980000D03*
%TO.N,Conn_track_4*%
X168860000Y-103530000D03*
%TO.N,Conn_track_7*%
X172030000Y-93670000D03*
%TD*%
D16*
%TO.N,BAT+*%
X125105000Y-85400000D02*
X125090000Y-85385000D01*
X178330000Y-85400000D02*
X125105000Y-85400000D01*
X178810000Y-85880000D02*
X178330000Y-85400000D01*
%TO.N,Conn_track_8*%
X114510000Y-92150000D02*
X113290000Y-93370000D01*
X223580000Y-93330000D02*
X222400000Y-92150000D01*
X222400000Y-92150000D02*
X114510000Y-92150000D01*
D17*
%TO.N,GND*%
X115170000Y-85350000D02*
X116150000Y-85350000D01*
X117840000Y-83660000D02*
X117840000Y-80400000D01*
X116150000Y-85350000D02*
X117840000Y-83660000D01*
X117840000Y-80400000D02*
X116770000Y-79330000D01*
X116770000Y-79330000D02*
X112830000Y-79330000D01*
D16*
%TO.N,Conn_track_9*%
X177090000Y-90790000D02*
X177070000Y-90770000D01*
X177050000Y-90790000D02*
X113330000Y-90790000D01*
X113330000Y-90790000D02*
X113290000Y-90830000D01*
X223580000Y-90790000D02*
X177090000Y-90790000D01*
X177070000Y-90770000D02*
X177050000Y-90790000D01*
%TO.N,Conn_track_10*%
X223580000Y-88250000D02*
X113330000Y-88250000D01*
X113330000Y-88250000D02*
X113290000Y-88290000D01*
%TO.N,Conn_track_1*%
X221560000Y-109090000D02*
X115350000Y-109090000D01*
X115350000Y-109090000D02*
X113290000Y-111150000D01*
X223580000Y-111110000D02*
X221560000Y-109090000D01*
%TO.N,Conn_track_2*%
X163290000Y-107620000D02*
X163240000Y-107570000D01*
X114330000Y-107570000D02*
X113290000Y-108610000D01*
X222580000Y-107570000D02*
X163340000Y-107570000D01*
X163340000Y-107570000D02*
X163290000Y-107620000D01*
X163240000Y-107570000D02*
X114330000Y-107570000D01*
X223580000Y-108570000D02*
X222580000Y-107570000D01*
%TO.N,Conn_track_3*%
X223580000Y-106030000D02*
X166140000Y-106030000D01*
X166140000Y-106030000D02*
X166090000Y-105980000D01*
X166090000Y-105980000D02*
X166040000Y-106030000D01*
X166040000Y-106030000D02*
X113330000Y-106030000D01*
X113330000Y-106030000D02*
X113290000Y-106070000D01*
%TO.N,Conn_track_4*%
X223580000Y-103490000D02*
X169370000Y-103490000D01*
X169370000Y-103490000D02*
X113330000Y-103490000D01*
X113330000Y-103490000D02*
X113290000Y-103530000D01*
%TO.N,Conn_track_7*%
X172100000Y-93600000D02*
X182210000Y-93600000D01*
X220680000Y-92970000D02*
X223580000Y-95870000D01*
X115530000Y-93670000D02*
X113290000Y-95910000D01*
X172030000Y-93670000D02*
X172100000Y-93600000D01*
X172030000Y-93670000D02*
X115530000Y-93670000D01*
X182210000Y-93600000D02*
X182840000Y-92970000D01*
X182840000Y-92970000D02*
X220680000Y-92970000D01*
%TD*%
M02*
